<?xml version="1.0" encoding="UTF-8"?>
<svg width="24px" height="24px" viewBox="0 0 24 24" version="1.1" xmlns="http://www.w3.org/2000/svg" xmlns:xlink="http://www.w3.org/1999/xlink">
    <!-- Generator: Sketch 57 (83077) - https://sketch.com -->
    <title>编组 19</title>
    <desc>Created with Sketch.</desc>
    <g id="市场成员监测" stroke="none" stroke-width="1" fill="none" fill-rule="evenodd">
        <g id="发电用户监测2.1" transform="translate(-56.000000, -496.000000)">
            <g id="编组" transform="translate(24.000000, 400.000000)">
                <g id="编组-4" transform="translate(32.000000, 96.000000)">
                    <g id="编组-19">
                        <circle id="椭圆形" fill="#6B75FB" cx="12" cy="12" r="12"></circle>
                        <g id="工厂管理" transform="translate(4.000000, 4.000000)" fill-rule="nonzero">
                            <rect id="矩形" fill="#000000" opacity="0" x="0" y="0" width="16" height="16"></rect>
                            <path d="M14.534375,13.5046875 L14.065625,13.5046875 L14.065625,6.240625 C14.065625,5.103125 13.2046875,4.140625 12.1890625,4.140625 L9.371875,4.140625 L9.371875,12.98125 C9.371875,13.24375 9.1375,13.50625 8.903125,13.50625 C8.66875,13.50625 8.434375,13.24375 8.434375,12.98125 L8.434375,3.090625 C8.434375,1.953125 7.5734375,0.990625 6.5578125,0.990625 L3.81875,0.990625 C2.8015625,0.990625 1.9421875,1.953125 1.9421875,3.090625 L1.9421875,13.50625 L1.4734375,13.50625 C1.2390625,13.50625 1.0046875,13.76875 1.0046875,14.03125 C1.0046875,14.29375 1.2390625,14.55625 1.4734375,14.55625 L14.534375,14.55625 C14.76875,14.55625 15.003125,14.29375 15.003125,14.03125 C15.003125,13.76875 14.76875,13.5046875 14.534375,13.5046875 Z M6.165625,11.403125 L4.2875,11.403125 C4.053125,11.403125 3.81875,11.140625 3.81875,10.878125 C3.81875,10.615625 4.053125,10.353125 4.2875,10.353125 L6.1640625,10.353125 C6.3984375,10.353125 6.63282027,10.615625 6.63282027,10.878125 C6.634375,11.228125 6.4,11.403125 6.165625,11.403125 Z M6.165625,8.340625 L4.2875,8.340625 C3.975,8.340625 3.81875,8.078125 3.81875,7.815625 C3.81875,7.553125 4.053125,7.290625 4.2875,7.290625 L6.1640625,7.290625 C6.3984375,7.290625 6.63282027,7.553125 6.63282027,7.815625 C6.634375,8.078125 6.4,8.340625 6.165625,8.340625 Z M6.165625,5.1890625 L4.2875,5.1890625 C3.975,5.1890625 3.81875,4.9265625 3.81875,4.6640625 C3.81875,4.4015625 4.053125,4.1390625 4.2875,4.1390625 L6.1640625,4.1390625 C6.3984375,4.1390625 6.63282027,4.4015625 6.63282027,4.6640625 C6.634375,4.9265625 6.4,5.1890625 6.165625,5.1890625 Z M12.65625,11.403125 L10.7796875,11.403125 C10.5453125,11.403125 10.3109375,11.140625 10.3109375,10.878125 C10.3109375,10.615625 10.5453125,10.353125 10.7796875,10.353125 L12.65625,10.353125 C12.890625,10.353125 13.1250078,10.615625 13.1250078,10.878125 C13.1265625,11.228125 12.8921875,11.403125 12.65625,11.403125 Z M12.65625,8.340625 L10.7796875,8.340625 C10.5453125,8.340625 10.3109375,8.078125 10.3109375,7.815625 C10.3109375,7.553125 10.5453125,7.290625 10.7796875,7.290625 L12.65625,7.290625 C12.890625,7.290625 13.1250078,7.553125 13.1250078,7.815625 C13.1265625,8.078125 12.8921875,8.340625 12.65625,8.340625 Z" id="形状" fill="#FFFFFF"></path>
                        </g>
                    </g>
                </g>
            </g>
        </g>
    </g>
</svg>