<?xml version="1.0" encoding="UTF-8"?>
<svg width="12px" height="14px" viewBox="0 0 12 14" version="1.1" xmlns="http://www.w3.org/2000/svg" xmlns:xlink="http://www.w3.org/1999/xlink">
    <!-- Generator: Sketch 57 (83077) - https://sketch.com -->
    <title>火</title>
    <desc>Created with Sketch.</desc>
    <g id="市场成员监测" stroke="none" stroke-width="1" fill="none" fill-rule="evenodd">
        <g id="电厂/机组详情" transform="translate(-299.000000, -970.000000)" fill-rule="nonzero">
            <g id="编组-9" transform="translate(257.000000, 846.000000)">
                <g id="编组-18" transform="translate(40.000000, 121.000000)">
                    <g id="编组-3">
                        <g id="火" transform="translate(0.000000, 2.000000)">
                            <rect id="矩形" fill="#000000" opacity="0" x="0" y="0" width="16" height="16"></rect>
                            <path d="M6.584375,15 C6.584375,15 0.5328125,13.634375 3.2375,6.85625 C3.2375,6.85625 3.8515625,7.609375 3.7671875,7.971875 C3.7671875,7.971875 4.2484375,6.2609375 5.2875,5.2390625 C6.1796875,4.3609375 7.0859375,1.8921875 6.25,1 C6.25,1 10.390625,1.8921875 10.8515625,6.3546875 C10.8515625,6.3546875 11.38125,4.9328125 12.46875,4.7921875 C12.46875,4.7921875 12.134375,5.5734375 12.46875,6.7453125 C12.46875,6.7453125 15.8984375,12.76875 9.9875,14.8046875 C9.9875,14.8046875 11.759375,12.740625 8.0015625,9.1984375 C8.0015625,9.1984375 7.115625,11.0953125 6.5859375,11.7640625 C6.584375,11.765625 5.10625,13.465625 6.584375,15 Z" id="路径" fill="#FFFFFF" opacity="0.649999976"></path>
                        </g>
                    </g>
                </g>
            </g>
        </g>
    </g>
</svg>