<?xml version="1.0" encoding="UTF-8"?>
<svg width="12px" height="12px" viewBox="0 0 12 12" version="1.1" xmlns="http://www.w3.org/2000/svg" xmlns:xlink="http://www.w3.org/1999/xlink">
    <!-- Generator: Sketch 57 (83077) - https://sketch.com -->
    <title>area chart</title>
    <desc>Created with Sketch.</desc>
    <g id="市场成员监测" stroke="none" stroke-width="1" fill="none" fill-rule="evenodd" opacity="0.649999976">
        <g id="电厂/机组详情" transform="translate(-363.000000, -971.000000)" fill-rule="nonzero">
            <g id="编组-9" transform="translate(257.000000, 846.000000)">
                <g id="编组-18" transform="translate(40.000000, 121.000000)">
                    <g id="编组-17" transform="translate(64.000000, 0.000000)">
                        <g id="area-chart" transform="translate(0.000000, 2.000000)">
                            <rect id="矩形" fill="#000000" opacity="0" x="0" y="0" width="16" height="16"></rect>
                            <path d="M13.875,12.375 L3.125,12.375 L3.125,2.625 C3.125,2.55625 3.06875,2.5 3,2.5 L2.125,2.5 C2.05625,2.5 2,2.55625 2,2.625 L2,13.375 C2,13.44375 2.05625,13.5 2.125,13.5 L13.875,13.5 C13.94375,13.5 14,13.44375 14,13.375 L14,12.5 C14,12.43125 13.94375,12.375 13.875,12.375 Z M4.25,11.375 L12.625,11.375 C12.69375,11.375 12.75,11.31875 12.75,11.25 L12.75,4.4375 C12.75,4.325 12.6140625,4.2703125 12.5359375,4.3484375 L9.25,7.634375 L7.290625,5.696875 C7.2421875,5.6484375 7.1625,5.6484375 7.1140625,5.696875 L4.1609375,8.659375 C4.1375,8.6828125 4.125,8.7140625 4.125,8.746875 L4.125,11.25 C4.125,11.31875 4.18125,11.375 4.25,11.375 Z" id="形状" fill="#FFFFFF"></path>
                        </g>
                    </g>
                </g>
            </g>
        </g>
    </g>
</svg>