<?xml version="1.0" encoding="UTF-8"?>
<svg width="12px" height="14px" viewBox="0 0 12 14" version="1.1" xmlns="http://www.w3.org/2000/svg" xmlns:xlink="http://www.w3.org/1999/xlink">
    <!-- Generator: Sketch 57 (83077) - https://sketch.com -->
    <title>编组 15</title>
    <desc>Created with Sketch.</desc>
    <g id="市场成员监测" stroke="none" stroke-width="1" fill="none" fill-rule="evenodd">
        <g id="电厂/机组详情" transform="translate(-299.000000, -316.000000)" fill-rule="nonzero">
            <g id="编组-12" transform="translate(257.000000, 191.000000)">
                <g id="编组-24" transform="translate(40.000000, 121.000000)">
                    <g id="编组">
                        <g id="编组-15" transform="translate(0.000000, 3.000873)">
                            <rect id="矩形" fill="#000000" opacity="0" x="0" y="0" width="16" height="16"></rect>
                            <path d="M7.87571527,14.9908502 C7.70853261,14.9908502 7.61625917,14.9707838 7.55749902,14.9019345 C7.52216297,14.8605385 3.96930781,10.6435737 3.02254172,8.60142223 C2.68050163,7.86988622 2.5,7.07556077 2.5,6.30040633 C2.5,3.37712431 4.91143705,1 7.87571527,1 C10.8399935,1 13.2514305,3.39356117 13.2514305,6.33483098 C13.2514305,7.2234445 13.0848555,7.89486128 12.6765883,8.65202792 C11.5476897,10.7440495 8.23188978,14.852544 8.19877623,14.8935402 C8.15920306,14.9430106 8.08853098,14.9908502 7.88399766,14.9908502 L7.87571527,14.9908502 L7.87571527,14.9908502 Z M7.87571527,4.25542481 C6.73572019,4.25542481 5.80812509,5.18300391 5.80812509,6.32301498 C5.80812509,7.46302606 6.73572019,8.39060516 7.87571527,8.39060516 C9.01571034,8.39060516 9.94330544,7.46302606 9.94330544,6.32301498 C9.94330544,5.18300391 9.01571034,4.25542481 7.87571527,4.25542481 Z" id="形状" fill="#FFFFFF" opacity="0.649999976"></path>
                        </g>
                    </g>
                </g>
            </g>
        </g>
    </g>
</svg>