<?xml version="1.0" encoding="UTF-8"?>
<svg width="12px" height="14px" viewBox="0 0 12 14" version="1.1" xmlns="http://www.w3.org/2000/svg" xmlns:xlink="http://www.w3.org/1999/xlink">
    <!-- Generator: Sketch 57 (83077) - https://sketch.com -->
    <title>形状结合</title>
    <desc>Created with Sketch.</desc>
    <defs>
        <rect id="path-1" x="0" y="0" width="16" height="16"></rect>
    </defs>
    <g id="市场成员监测" stroke="none" stroke-width="1" fill="none" fill-rule="evenodd">
        <g id="电厂/机组详情" transform="translate(-445.000000, -316.000000)">
            <g id="编组-12" transform="translate(257.000000, 191.000000)">
                <g id="编组-24" transform="translate(40.000000, 121.000000)">
                    <g id="编组-16" transform="translate(146.000000, 0.000000)">
                        <g id="形状结合" transform="translate(0.000000, 3.000000)">
                            <mask id="mask-2" fill="white">
                                <use xlink:href="#path-1"></use>
                            </mask>
                            <g id="蒙版"></g>
                            <path d="M13,1.5 C13.2761424,1.5 13.5,1.72385763 13.5,2 L13.5,14.518115 C13.5,14.7942574 13.2761424,15.018115 13,15.018115 C12.8943287,15.018115 12.7913743,14.9846359 12.7059142,14.922483 L8.29408585,11.7138806 C8.11876059,11.5863713 7.88123941,11.5863713 7.70591415,11.7138806 L3.29408585,14.922483 C3.07075955,15.0849021 2.75805109,15.0355271 2.59563196,14.8122008 C2.53347912,14.7267407 2.5,14.6237862 2.5,14.518115 L2.5,2 C2.5,1.72385763 2.72385763,1.5 3,1.5 L13,1.5 Z M8.5,7.5 L4.5,7.5 L4.5,8.5 L8.5,8.5 L8.5,7.5 Z M11.5,4.5 L4.5,4.5 L4.5,5.5 L11.5,5.5 L11.5,4.5 Z" fill="#FFFFFF" opacity="0.649999976" mask="url(#mask-2)"></path>
                        </g>
                    </g>
                </g>
            </g>
        </g>
    </g>
</svg>