<?xml version="1.0" encoding="UTF-8"?>
<svg width="24px" height="24px" viewBox="0 0 24 24" version="1.1" xmlns="http://www.w3.org/2000/svg" xmlns:xlink="http://www.w3.org/1999/xlink">
    <!-- Generator: Sketch 57 (83077) - https://sketch.com -->
    <title>编组 6</title>
    <desc>Created with Sketch.</desc>
    <g id="市场成员监测" stroke="none" stroke-width="1" fill="none" fill-rule="evenodd">
        <g id="发电用户监测2.1" transform="translate(-56.000000, -560.000000)">
            <g id="编组" transform="translate(24.000000, 400.000000)">
                <g id="编组-4" transform="translate(32.000000, 96.000000)">
                    <g id="编组-6" transform="translate(0.000000, 64.000000)">
                        <circle id="椭圆形备份" fill="#22B0A3" cx="12" cy="12" r="12"></circle>
                        <g id="坐标" transform="translate(4.000000, 4.000000)" fill-rule="nonzero">
                            <rect id="矩形" fill="#000000" opacity="0" x="0" y="0" width="16" height="16"></rect>
                            <path d="M8.23520312,1.5144375 C5.59253125,1.51946875 3.45196875,3.6628125 3.45196875,6.306625 C3.45196875,8.77515625 5.46725,11.3717813 7.79760937,14.1649844 C7.92007812,14.3121406 8.0785,14.3913125 8.23520312,14.4003125 C8.39190625,14.3913125 8.55032813,14.3121406 8.67273437,14.1649844 C11.0031094,11.3717812 13.0184062,8.77517188 13.0184062,6.306625 C13.0184062,3.66279687 10.8778281,1.51946875 8.2351875,1.5144375 L8.23520312,1.5144375 Z M8.23520312,7.82760937 C7.20285937,7.82201563 6.36704687,6.98454687 6.36704687,5.9510625 C6.36704687,4.91757813 7.20285937,4.080125 8.23520312,4.07451563 C9.26753125,4.08010938 10.1032812,4.91757813 10.1032812,5.9510625 C10.1032812,6.98454687 9.26754688,7.822 8.23520312,7.82760937 Z" id="形状" fill="#FFFFFF"></path>
                        </g>
                    </g>
                </g>
            </g>
        </g>
    </g>
</svg>