<?xml version="1.0" encoding="UTF-8"?>
<svg width="28px" height="28px" viewBox="0 0 28 28" version="1.1" xmlns="http://www.w3.org/2000/svg" xmlns:xlink="http://www.w3.org/1999/xlink">
    <!-- Generator: Sketch 57 (83077) - https://sketch.com -->
    <title>重置密码备份 2</title>
    <desc>Created with Sketch.</desc>
    <g id="市场成员监测" stroke="none" stroke-width="1" fill="none" fill-rule="evenodd">
        <g id="系统资源-权限管理-员工管理1" transform="translate(-1276.000000, -278.000000)" fill-rule="nonzero">
            <g id="重置密码备份-2" transform="translate(1276.000000, 278.000000)">
                <g id="重置密码备份">
                    <rect id="矩形" fill="#000000" opacity="0" x="0" y="0" width="28" height="28"></rect>
                    <path d="M17.395875,12.2480862 C18.41875,12.2480862 19.247375,13.15182 19.247375,14.2672707 L19.247375,18.9775347 C19.247375,20.0921106 18.41875,20.9958444 17.395875,20.9958444 L10.607625,20.9958444 C9.58562499,20.9958444 8.75612499,20.0921106 8.75612499,18.9775347 L8.75612499,14.2672707 C8.75612499,13.1526949 9.58474999,12.2480862 10.607625,12.2480862 L17.395875,12.2480862 Z M13.986875,14.0065615 C13.020875,14.0065615 12.236875,14.7554445 12.236875,15.6801749 C12.236875,16.2978284 12.716375,16.7702546 13.237875,17.0607092 L13.237875,19.2356194 L14.73675,19.2356194 L14.73675,17.0607092 C15.25825,16.7702546 15.73775,16.2978284 15.73775,15.6801749 C15.736875,14.7554444 14.952875,14.0065615 13.986875,14.0065615 Z" id="形状结合" fill="#618AFF"></path>
                    <path d="M14,28 C6.26762499,28 0,21.7333541 0,14.0021871 C0,6.27102016 6.26762502,0.00437431641 14,0.00437431641 C16.492,0.00437431641 18.83,0.659646941 20.8565,1.80134355 L22.1585,0 L24.4895,6.12666767 L18.3785,5.22993278 L19.821375,3.23349471 C18.088875,2.29476641 16.10875,1.75497577 14,1.75497577 C7.23449999,1.75497577 1.74999999,7.23861895 1.74999999,14.003062 C1.74999999,20.7675051 7.23449999,26.2511482 14,26.2511482 C20.7655,26.2511482 26.25,20.7675051 26.25,14.003062 C26.25,12.3513201 25.918375,10.7783159 25.326,9.34004061 L26.943875,8.67426962 C27.621125,10.3172629 28,12.115107 28,14.003062 C28,21.7333541 21.732375,28 14,28 Z" id="路径" fill="#618AFF"></path>
                    <path d="M14,8.75300732 C12.355,8.75300732 12.254375,10.1361662 12.25,10.5027339 L12.25,12.2472114 L10.488625,12.2472114 L10.488625,10.6715826 C10.488625,10.6715826 10.4895,6.99715671 13.993,6.99715671 C17.497375,6.99715671 17.497375,10.6715826 17.497375,10.6715826 L17.497375,12.2472114 L15.75,12.2472114 L15.75,10.5027339 C15.7465,10.1422902 15.645,8.75300732 14,8.75300732 Z" id="路径" fill="#618AFF"></path>
                </g>
            </g>
        </g>
    </g>
</svg>