<?xml version="1.0" encoding="UTF-8"?>
<svg width="16px" height="14px" viewBox="0 0 16 14" version="1.1" xmlns="http://www.w3.org/2000/svg" xmlns:xlink="http://www.w3.org/1999/xlink">
    <!-- Generator: Sketch 57 (83077) - https://sketch.com -->
    <title>error-fill</title>
    <desc>Created with Sketch.</desc>
    <g id="9通用" stroke="none" stroke-width="1" fill="none" fill-rule="evenodd">
        <g id="icon" transform="translate(-182.000000, -296.000000)" fill-rule="nonzero">
            <g id="error-fill" transform="translate(181.000000, 294.000000)">
                <rect id="矩形" fill="#000000" opacity="0" x="0" y="0" width="17.6" height="17.6"></rect>
                <path d="M16.4260937,14.7125 L9.27609375,2.3375 C9.16953125,2.15359375 8.985625,2.0625 8.8,2.0625 C8.614375,2.0625 8.42875,2.15359375 8.32390625,2.3375 L1.17390625,14.7125 C0.9625,15.0803125 1.2271875,15.5375 1.65,15.5375 L15.95,15.5375 C16.3728125,15.5375 16.6375,15.0803125 16.4260937,14.7125 Z M8.25,7.15 C8.25,7.074375 8.311875,7.0125 8.3875,7.0125 L9.2125,7.0125 C9.288125,7.0125 9.35,7.074375 9.35,7.15 L9.35,10.3125 C9.35,10.388125 9.288125,10.45 9.2125,10.45 L8.3875,10.45 C8.311875,10.45 8.25,10.388125 8.25,10.3125 L8.25,7.15 Z M8.8,13.2 C8.34453125,13.2 7.975,12.8304688 7.975,12.375 C7.975,11.9195313 8.34453125,11.55 8.8,11.55 C9.25546875,11.55 9.625,11.9195313 9.625,12.375 C9.625,12.8304688 9.25546875,13.2 8.8,13.2 Z" id="形状" fill="#FF0000"></path>
            </g>
        </g>
    </g>
</svg>