<?xml version="1.0" encoding="UTF-8"?>
<svg width="32px" height="32px" viewBox="0 0 32 32" version="1.1" xmlns="http://www.w3.org/2000/svg" xmlns:xlink="http://www.w3.org/1999/xlink">
    <!-- Generator: Sketch 57 (83077) - https://sketch.com -->
    <title>编组 10</title>
    <desc>Created with Sketch.</desc>
    <defs>
        <circle id="path-1" cx="12" cy="12" r="12"></circle>
        <filter x="-29.2%" y="-20.8%" width="158.3%" height="158.3%" filterUnits="objectBoundingBox" id="filter-2">
            <feOffset dx="0" dy="2" in="SourceAlpha" result="shadowOffsetOuter1"></feOffset>
            <feGaussianBlur stdDeviation="2" in="shadowOffsetOuter1" result="shadowBlurOuter1"></feGaussianBlur>
            <feColorMatrix values="0 0 0 0 0   0 0 0 0 0   0 0 0 0 0  0 0 0 0.5 0" type="matrix" in="shadowBlurOuter1"></feColorMatrix>
        </filter>
    </defs>
    <g id="8全息反演" stroke="none" stroke-width="1" fill="none" fill-rule="evenodd">
        <g id="全系反演" transform="translate(-570.000000, -623.000000)">
            <g id="编组-4" transform="translate(322.000000, 477.000000)">
                <g id="编组-10" transform="translate(252.000000, 148.000000)">
                    <g id="椭圆形">
                        <use fill="black" fill-opacity="1" filter="url(#filter-2)" xlink:href="#path-1"></use>
                        <use fill="#3399FF" fill-rule="evenodd" xlink:href="#path-1"></use>
                    </g>
                    <g id="property-safety-fill" transform="translate(5.000000, 5.000000)" fill-rule="nonzero">
                        <rect id="矩形" fill="#000000" opacity="0" x="0" y="0" width="14.08" height="14.08"></rect>
                        <path d="M11.919875,2.336125 L7.247625,0.743875 C7.19125,0.724625 7.115625,0.715 7.04,0.715 C6.964375,0.715 6.88875,0.724625 6.832375,0.743875 L2.160125,2.336125 C2.046,2.374625 1.9525,2.506625 1.9525,2.627625 L1.9525,9.260625 C1.9525,9.381625 2.030875,9.541125 2.12575,9.61675 L6.865375,13.31 C6.9135,13.347125 6.975375,13.366375 7.038625,13.366375 C7.101875,13.366375 7.165125,13.347125 7.211875,13.31 L11.9515,9.61675 C12.046375,9.5425 12.1248092,9.383 12.1248092,9.260625 L12.1248092,2.627625 C12.1275,2.506625 12.034,2.376 11.919875,2.336125 Z M8.914125,4.576 L7.70825,6.791125 L8.336625,6.791125 C8.41225,6.791125 8.474125,6.853 8.474125,6.928625 L8.474125,7.2215 C8.474125,7.297125 8.41225,7.359 8.336625,7.359 L7.464875,7.359 L7.464875,7.767375 L8.336625,7.767375 C8.41225,7.767375 8.474125,7.82925 8.474125,7.904875 L8.474125,8.19775 C8.474125,8.273375 8.41225,8.33525 8.336625,8.33525 L7.464875,8.33525 L7.464875,9.0475 C7.464875,9.123125 7.403,9.185 7.327375,9.185 L6.7595,9.185 C6.683875,9.185 6.622,9.123125 6.622,9.0475 L6.622,8.33525 L5.754375,8.33525 C5.67875,8.33525 5.616875,8.273375 5.616875,8.19775 L5.616875,7.904875 C5.616875,7.82925 5.67875,7.767375 5.754375,7.767375 L6.622,7.767375 L6.622,7.359 L5.754375,7.359 C5.67875,7.359 5.616875,7.297125 5.616875,7.2215 L5.616875,6.928625 C5.616875,6.853 5.67875,6.791125 5.754375,6.791125 L6.375875,6.791125 L5.165875,4.576 C5.130125,4.51 5.1535,4.426125 5.220875,4.389 C5.2415,4.378 5.2635,4.3725 5.286875,4.3725 L5.919375,4.3725 C5.971625,4.3725 6.018375,4.401375 6.04175,4.448125 L7.044125,6.43225 L8.050625,4.448125 C8.074,4.401375 8.122125,4.3725 8.173,4.3725 L8.79175,4.3725 C8.867375,4.3725 8.92925,4.434375 8.92925,4.51 C8.930625,4.533375 8.925125,4.555375 8.914125,4.576 Z" id="形状" fill="#FFFFFF"></path>
                    </g>
                </g>
            </g>
        </g>
    </g>
</svg>