<?xml version="1.0" encoding="UTF-8"?>
<svg width="48px" height="56px" viewBox="0 0 48 56" version="1.1" xmlns="http://www.w3.org/2000/svg" xmlns:xlink="http://www.w3.org/1999/xlink">
    <!-- Generator: Sketch 57 (83077) - https://sketch.com -->
    <title>Group 8 Copy</title>
    <desc>Created with Sketch.</desc>
    <defs>
        <radialGradient cx="50%" cy="50%" fx="50%" fy="50%" r="50%" id="radialGradient-1">
            <stop stop-color="#73FAEB" stop-opacity="0" offset="0%"></stop>
            <stop stop-color="#59F7DF" stop-opacity="0.197852928" offset="69.03769%"></stop>
            <stop stop-color="#3FF3D3" stop-opacity="0.801710009" offset="100%"></stop>
        </radialGradient>
        <polygon id="path-2" points="0.00150417827 0.00616374269 17.9775627 0.00616374269 17.9775627 16.9751959 0.00150417827 16.9751959"></polygon>
    </defs>
    <g id="2市场成员监测（完成）" stroke="none" stroke-width="1" fill="none" fill-rule="evenodd">
        <g id="二区-批发用户监测-电费" transform="translate(-355.000000, -233.000000)">
            <g id="编组-3" transform="translate(336.000000, 200.000000)">
                <g id="Group-8-Copy" transform="translate(16.000000, 34.000000)">
                    <polygon id="Polygon" stroke="#3FF3D3" stroke-width="0.88" fill-opacity="0.45" fill="url(#radialGradient-1)" points="27 0 50.3826859 13.5 50.3826859 40.5 27 54 3.6173141 40.5 3.6173141 13.5"></polygon>
                    <g id="yonghu" transform="translate(18.000000, 19.000000)">
                        <mask id="mask-3" fill="white">
                            <use xlink:href="#path-2"></use>
                        </mask>
                        <g id="Clip-2"></g>
                        <path d="M17.9775627,8.68595614 L17.9775627,13.1410994 L16.9520641,13.1410994 C16.7954791,12.7262646 16.6145014,12.3800512 16.3988774,12.1026827 C15.6120167,11.0758231 14.2514123,10.8008655 13.0563928,10.5514576 C12.5789916,10.4547515 12.125883,10.3605804 11.7677382,10.2307939 C11.6137103,10.1761155 11.5058858,10.1213626 11.431454,10.0819444 C11.8087772,9.67215497 12.1335042,9.17080409 12.3709889,8.60451023 C12.6687911,7.91103947 12.8240975,7.15637865 12.8240975,6.42088012 C12.8240975,5.29731433 12.7522228,4.01073246 12.2336825,2.97872807 C12.0039443,2.52825292 11.6393565,2.02436696 11.0604986,1.66165058 C11.3364652,0.674209064 11.9680195,0.017621345 13.3079666,0.017621345 C15.4142925,0.017621345 15.737766,1.70748099 15.737766,3.74482164 C15.737766,4.81246637 15.2577075,5.90680409 14.5479359,6.52911842 C14.4773148,6.5927193 14.4375543,6.68301316 14.4375543,6.77464912 C14.4350223,7.02793421 14.4426685,7.36008041 14.5401894,7.48472222 C15.1357939,8.27238889 16.7543398,8.29654678 17.9775627,8.68595614 M1.53511421,12.1345205 C2.30141783,11.0515409 3.70178273,10.7754401 4.93528412,10.5272749 C5.41925348,10.4331038 5.87226184,10.3389327 6.233039,10.2142909 C6.38187744,10.1621477 6.48716992,10.1150497 6.56032312,10.0730219 C6.18289972,9.66333187 5.86972981,9.16702632 5.62715599,8.61092251 C5.33316435,7.92122953 5.1727688,7.1805614 5.16249025,6.46037281 C5.15093315,5.50720468 5.2112507,4.78187135 5.33582173,4.1659693 C5.51805292,3.2803538 5.85180501,2.60592105 6.3587883,2.09815789 C6.52693036,1.92515058 6.71562953,1.78000439 6.91588579,1.65533772 C6.63347632,0.662751462 6.01475766,0.00616374269 4.70173538,0.00616374269 C2.53115599,0.00616374269 2.22570752,1.71516082 2.24628969,3.76773684 C2.25782173,4.81373392 2.73660167,5.90302632 3.43865181,6.52270614 C3.51052646,6.58503947 3.55038719,6.67670029 3.55038719,6.77338158 C3.55038719,7.02659211 3.53364067,7.35617836 3.44384123,7.47326462 C2.86235097,8.25966374 1.23096936,8.27753363 0,8.65421784 L0,13.1359547 L1.02815599,13.1359547 C1.17190529,12.7389898 1.34260446,12.4106462 1.53511421,12.1345205 M16.4219916,16.5781067 C16.4321699,16.7944094 16.2576602,16.9751959 16.0420111,16.9751959 L1.9510195,16.9751959 C1.73283844,16.9751959 1.56078552,16.7931667 1.57234262,16.5781067 C1.62248189,15.7229868 1.80471309,13.720019 2.45544568,12.7975205 C3.44384123,11.4027997 6.70662953,11.8825029 7.62049304,10.6354386 C7.72448189,10.4993143 7.74122841,10.1315526 7.74122841,9.84777193 C7.74122841,9.74090058 7.69627855,9.63914912 7.61665738,9.56525877 C6.83245404,8.87052047 6.30353482,7.65395175 6.29197772,6.47690058 C6.26896379,4.17364912 6.60780501,2.26107456 9.0157688,2.26107456 C11.3505794,2.26107456 11.7061421,4.15324415 11.7061421,6.44379532 C11.7061421,7.64249415 11.1746908,8.86664327 10.3904875,9.56525877 C10.3146769,9.63400439 10.2659164,9.73963304 10.2646379,9.83884942 C10.2582702,10.1213626 10.276195,10.4968041 10.3750195,10.6368056 C11.3005404,11.883845 14.4657577,11.4371725 15.5144708,12.798788 C16.1986212,13.7010058 16.3757632,15.7217193 16.4219916,16.5781067" id="Fill-1" fill="#3FF3D3" mask="url(#mask-3)"></path>
                    </g>
                </g>
            </g>
        </g>
    </g>
</svg>