<?xml version="1.0" encoding="UTF-8"?>
<svg width="32px" height="32px" viewBox="0 0 32 32" version="1.1" xmlns="http://www.w3.org/2000/svg" xmlns:xlink="http://www.w3.org/1999/xlink">
    <!-- Generator: Sketch 57 (83077) - https://sketch.com -->
    <title>编组 13</title>
    <desc>Created with Sketch.</desc>
    <defs>
        <circle id="path-1" cx="12" cy="12" r="12"></circle>
        <filter x="-29.2%" y="-20.8%" width="158.3%" height="158.3%" filterUnits="objectBoundingBox" id="filter-2">
            <feOffset dx="0" dy="2" in="SourceAlpha" result="shadowOffsetOuter1"></feOffset>
            <feGaussianBlur stdDeviation="2" in="shadowOffsetOuter1" result="shadowBlurOuter1"></feGaussianBlur>
            <feColorMatrix values="0 0 0 0 0   0 0 0 0 0   0 0 0 0 0  0 0 0 0.5 0" type="matrix" in="shadowBlurOuter1"></feColorMatrix>
        </filter>
    </defs>
    <g id="8全息反演" stroke="none" stroke-width="1" fill="none" fill-rule="evenodd">
        <g id="全系反演" transform="translate(-783.000000, -573.000000)">
            <g id="编组-4" transform="translate(322.000000, 477.000000)">
                <g id="编组-13" transform="translate(465.000000, 98.000000)">
                    <g id="椭圆形">
                        <use fill="black" fill-opacity="1" filter="url(#filter-2)" xlink:href="#path-1"></use>
                        <use fill="#3399FF" fill-rule="evenodd" xlink:href="#path-1"></use>
                    </g>
                    <path d="M12,5 C8.134375,5 5,8.134375 5,12 C5,15.865625 8.134375,19 12,19 C15.865625,19 19,15.865625 19,12 C19,8.134375 15.865625,5 12,5 Z M14.2515625,12.1078125 L10.8390625,14.590625 C10.8171875,14.60625 10.7921875,14.6140625 10.765625,14.6140625 C10.696875,14.6140625 10.640625,14.5578125 10.640625,14.4890625 L10.640625,9.5265625 C10.640625,9.5 10.6484375,9.475 10.6640625,9.453125 C10.7046875,9.396875 10.7828125,9.384375 10.8390625,9.425 L14.2515625,11.90625 C14.2625,11.9140625 14.271875,11.9234375 14.2796875,11.934375 C14.3203125,11.9890625 14.3078125,12.0671875 14.2515625,12.1078125 Z" id="形状" fill="#FFFFFF" fill-rule="nonzero"></path>
                </g>
            </g>
        </g>
    </g>
</svg>