<?xml version="1.0" encoding="UTF-8"?>
<svg width="32px" height="32px" viewBox="0 0 32 32" version="1.1" xmlns="http://www.w3.org/2000/svg" xmlns:xlink="http://www.w3.org/1999/xlink">
    <!-- Generator: Sketch 57 (83077) - https://sketch.com -->
    <title>编组 15</title>
    <desc>Created with Sketch.</desc>
    <defs>
        <circle id="path-1" cx="12" cy="12" r="12"></circle>
        <filter x="-29.2%" y="-20.8%" width="158.3%" height="158.3%" filterUnits="objectBoundingBox" id="filter-2">
            <feOffset dx="0" dy="2" in="SourceAlpha" result="shadowOffsetOuter1"></feOffset>
            <feGaussianBlur stdDeviation="2" in="shadowOffsetOuter1" result="shadowBlurOuter1"></feGaussianBlur>
            <feColorMatrix values="0 0 0 0 0   0 0 0 0 0   0 0 0 0 0  0 0 0 0.5 0" type="matrix" in="shadowBlurOuter1"></feColorMatrix>
        </filter>
        <polygon id="path-3" points="0.00096 0.0128 13.107184 0.0128 13.107184 13.119984 0.00096 13.119984"></polygon>
    </defs>
    <g id="8全息反演" stroke="none" stroke-width="1" fill="none" fill-rule="evenodd">
        <g id="全系反演" transform="translate(-435.000000, -769.000000)">
            <g id="编组-4" transform="translate(322.000000, 477.000000)">
                <g id="编组-15" transform="translate(117.000000, 294.000000)">
                    <g id="椭圆形">
                        <use fill="black" fill-opacity="1" filter="url(#filter-2)" xlink:href="#path-1"></use>
                        <use fill="#3399FF" fill-rule="evenodd" xlink:href="#path-1"></use>
                    </g>
                    <g id="tiaodu-fill" transform="translate(5.000000, 5.000000)">
                        <mask id="mask-4" fill="white">
                            <use xlink:href="#path-3"></use>
                        </mask>
                        <g id="Clip-2"></g>
                        <path d="M11.195744,0 L1.91144,0 C1.365312,0 0.90112,0.218432 0.546128,0.57344 C0.218432,0.928432 0,1.392624 0,1.91144 L0,11.195744 C0,12.260688 0.846496,13.107184 1.91144,13.107184 L11.195744,13.107184 C12.260688,13.107184 13.107184,12.260688 13.107184,11.195744 L13.107184,1.91144 C13.107184,0.846496 12.260688,0 11.195744,0 Z M10.37656,8.656192 C10.37656,8.95656 10.130752,9.175056 9.85768,9.175056 L6.307808,9.175056 C6.089376,9.66656 5.625184,9.994256 5.051744,9.994256 C4.47832,9.994256 4.014064,9.66656 3.795632,9.175056 L3.249504,9.175056 C2.94912,9.175056 2.730688,8.929248 2.730688,8.656192 L2.730688,8.628944 C2.730688,8.32856 2.976432,8.110064 3.249504,8.110064 L3.795632,8.110064 C4.014064,7.61856 4.47832,7.29088 5.051744,7.29088 C5.625184,7.29088 6.089376,7.61856 6.307808,8.110064 L9.85768,8.110064 C10.158064,8.110064 10.37656,8.355808 10.37656,8.628944 L10.37656,8.656192 Z M10.37656,4.560192 C10.37656,4.86056 10.130752,5.079056 9.85768,5.079056 L9.311568,5.079056 C9.09312,5.57056 8.628944,5.898256 8.05544,5.898256 C7.482,5.898256 7.017808,5.57056 6.799376,5.079056 L3.249504,5.079056 C2.94912,5.079056 2.730688,4.833248 2.730688,4.560192 L2.730688,4.532944 C2.730688,4.23256 2.976432,4.014064 3.249504,4.014064 L6.799376,4.014064 C7.017808,3.52256 7.482,3.19488 8.05544,3.19488 C8.628944,3.19488 9.09312,3.52256 9.311568,4.014064 L9.85768,4.014064 C10.158064,4.014064 10.37656,4.259808 10.37656,4.532944 L10.37656,4.560192 Z" id="Fill-1" fill="#FFFFFF" mask="url(#mask-4)"></path>
                    </g>
                </g>
            </g>
        </g>
    </g>
</svg>