<?xml version="1.0" encoding="UTF-8"?>
<svg width="24px" height="24px" viewBox="0 0 24 24" version="1.1" xmlns="http://www.w3.org/2000/svg" xmlns:xlink="http://www.w3.org/1999/xlink">
    <title>日历</title>
    <g id="调频市场" stroke="none" stroke-width="1" fill="none" fill-rule="evenodd">
        <g id="调频总览" transform="translate(-494.000000, -187.000000)">
            <g id="日历" transform="translate(494.000000, 187.000000)">
                <rect id="矩形" fill="#000000" fill-rule="nonzero" opacity="0" x="0" y="0" width="24" height="24"></rect>
                <path d="M22,8 L22,19.6462683 C22,20.9408441 20.9099492,22 19.5776113,22 L4.42238867,22 C3.09005082,22 2,20.9408441 2,19.6462683 L2,8" id="路径" fill="#12AF94" fill-rule="nonzero"></path>
                <path d="M2,8 L2,6.45707408 C2,5.10564322 2.99564076,4 4.2126153,4 L19.5754438,4 C20.9089858,4 22,5.21155389 22,6.69243113 L22,8" id="路径" fill="#40F3D4" fill-rule="nonzero"></path>
                <path d="M7.02555556,5 L6.97444444,5 C6.43833333,5 6,4.78419037 6,4.5202407 L6,2.4797593 C6,2.21580963 6.43833333,2 6.97444444,2 L7.02555556,2 C7.56166667,2 8,2.21580963 8,2.4797593 L8,4.5202407 C8,4.78419037 7.56166667,5 7.02555556,5 Z" id="路径" fill="#40F3D4" fill-rule="nonzero"></path>
                <path d="M17.0255556,5 L16.9744444,5 C16.4383333,5 16,4.78419037 16,4.5202407 L16,2.4797593 C16,2.21580963 16.4383333,2 16.9744444,2 L17.0255556,2 C17.5616667,2 18,2.21580963 18,2.4797593 L18,4.5202407 C18,4.78419037 17.5616667,5 17.0255556,5 Z" id="路径" fill="#40F3D4" fill-rule="nonzero"></path>
                <rect id="矩形" fill="#0D6C5B" x="5" y="11" width="6" height="2" rx="0.5"></rect>
                <rect id="矩形" fill="#0D6C5B" x="13" y="11" width="6" height="2" rx="0.5"></rect>
                <rect id="矩形" fill="#0D6C5B" x="5" y="15" width="6" height="2" rx="0.5"></rect>
                <rect id="矩形" fill="#0D6C5B" x="13" y="15" width="6" height="2" rx="0.5"></rect>
            </g>
        </g>
    </g>
</svg>