<?xml version="1.0" encoding="UTF-8"?>
<svg width="48px" height="56px" viewBox="0 0 48 56" version="1.1" xmlns="http://www.w3.org/2000/svg" xmlns:xlink="http://www.w3.org/1999/xlink">
    <!-- Generator: Sketch 57 (83077) - https://sketch.com -->
    <title>Group 8</title>
    <desc>Created with Sketch.</desc>
    <defs>
        <radialGradient cx="50%" cy="50%" fx="50%" fy="50%" r="50%" id="radialGradient-1">
            <stop stop-color="#73FAEB" stop-opacity="0" offset="0%"></stop>
            <stop stop-color="#59F7DF" stop-opacity="0.197852928" offset="69.03769%"></stop>
            <stop stop-color="#3FF3D3" stop-opacity="0.801710009" offset="100%"></stop>
        </radialGradient>
    </defs>
    <g id="2市场成员监测（完成）" stroke="none" stroke-width="1" fill="none" fill-rule="evenodd">
        <g id="二区-发电企业监测-电厂画像-收益" transform="translate(-823.000000, -233.000000)">
            <g id="编组-17" transform="translate(804.000000, 200.000000)">
                <g id="Group-8" transform="translate(16.000000, 34.000000)">
                    <polygon id="Polygon" stroke="#3FF3D3" stroke-width="0.88" fill-opacity="0.45" fill="url(#radialGradient-1)" points="27 0 50.3826859 13.5 50.3826859 40.5 27 54 3.6173141 40.5 3.6173141 13.5"></polygon>
                    <g id="thunderbolt" transform="translate(16.000000, 16.000000)" fill-rule="nonzero">
                        <g id="Group">
                            <rect id="Rectangle" fill="#000000" opacity="0" x="0" y="0" width="22" height="22"></rect>
                            <path d="M18.21875,7.71933594 L13.4857422,7.71933594 L17.7417969,2.34179688 C17.8298828,2.22792969 17.7503906,2.0625 17.6064453,2.0625 L9.3671875,2.0625 C9.30703125,2.0625 9.24902344,2.09472656 9.21894531,2.1484375 L3.65234375,11.7626953 C3.58574219,11.8765625 3.66738281,12.0205078 3.80058594,12.0205078 L7.54746094,12.0205078 L5.62675781,19.7033203 C5.5859375,19.8708984 5.78789063,19.9890625 5.9125,19.86875 L18.3369141,8.01367188 C18.4486328,7.90839844 18.3734375,7.71933594 18.21875,7.71933594 Z" id="Path" fill="#3FF3D3"></path>
                            <polygon id="Path" fill="#3FF3D3" points="8.12539062 15.7373047 9.42089844 10.5595703 6.03925781 10.5595703 10.1126953 3.52558594 14.9380859 3.52558594 10.4628906 9.18242188 14.9960938 9.18242188"></polygon>
                        </g>
                    </g>
                </g>
            </g>
        </g>
    </g>
</svg>