<?xml version="1.0" encoding="UTF-8"?>
<svg width="24px" height="24px" viewBox="0 0 24 24" version="1.1" xmlns="http://www.w3.org/2000/svg" xmlns:xlink="http://www.w3.org/1999/xlink">
    <!-- Generator: Sketch 57 (83077) - https://sketch.com -->
    <title>编组 20</title>
    <desc>Created with Sketch.</desc>
    <g id="2市场成员监测（完成）" stroke="none" stroke-width="1" fill="none" fill-rule="evenodd">
        <g id="二区-发电企业监测-电厂画像-收益" transform="translate(-48.000000, -337.000000)">
            <g id="编组-4" transform="translate(24.000000, 200.000000)">
                <g id="编组-20" transform="translate(24.000000, 137.000000)">
                    <circle id="椭圆形备份" fill="#CC963D" cx="12" cy="12" r="12"></circle>
                    <g id="机械租赁" transform="translate(4.000000, 4.000000)" fill-rule="nonzero">
                        <rect id="矩形" fill="#000000" opacity="0" x="0" y="0" width="16" height="16"></rect>
                        <path d="M13.0093437,8.66053125 C13.0363125,8.44484375 13.0565312,8.22917187 13.0565312,8 C13.0565312,7.77082812 13.0363125,7.55515625 13.0093437,7.33946875 L14.4315,6.22735937 C14.5595625,6.12626562 14.5932656,5.94428125 14.512375,5.796 L13.1643594,3.4639375 C13.0834844,3.31565625 12.9015,3.26173437 12.7532187,3.31565625 L11.0749531,3.98965625 C10.7244687,3.72004687 10.3470313,3.497625 9.93589062,3.329125 L9.67976562,1.54303125 C9.65954687,1.38126562 9.518,1.25995312 9.3495,1.25995312 L6.65348437,1.25995312 C6.48498437,1.25995312 6.3434375,1.38128125 6.32321875,1.54303125 L6.06709375,3.32914062 C5.65595312,3.49764062 5.27851562,3.72679687 4.92803125,3.98967187 L3.24976562,3.31567187 C3.09475,3.25501562 2.9195,3.31567187 2.838625,3.46395312 L1.49059375,5.796 C1.40296875,5.94428125 1.44340625,6.12626562 1.57146875,6.22735937 L2.993625,7.33946875 C2.96667187,7.55515625 2.9464375,7.77757812 2.9464375,8 C2.9464375,8.22242187 2.96665625,8.44484375 2.993625,8.66053125 L1.57146875,9.77264062 C1.44340625,9.87373437 1.40970312,10.0557187 1.49059375,10.204 L2.83860937,12.5360625 C2.91948437,12.6843437 3.10146875,12.7382656 3.24975,12.6843437 L4.92801562,12.0103437 C5.2785,12.2799531 5.6559375,12.502375 6.06707812,12.670875 L6.32320312,14.4569844 C6.34342187,14.61875 6.48496875,14.7400625 6.65346875,14.7400625 L9.34948437,14.7400625 C9.51798437,14.7400625 9.65953125,14.6187344 9.67975,14.4569844 L9.935875,12.670875 C10.3470156,12.502375 10.7244531,12.2732187 11.0749375,12.0103437 L12.7532031,12.6843437 C12.9082187,12.745 13.0834687,12.6843437 13.1643437,12.5360625 L14.5123594,10.204 C14.5932344,10.0557187 14.5595469,9.87373438 14.4314844,9.77264062 L13.0093437,8.66053125 L13.0093437,8.66053125 Z M8.00148438,10.3590156 C6.70065625,10.3590156 5.64246875,9.30082812 5.64246875,8 C5.64246875,6.69917188 6.70065625,5.64098438 8.00148438,5.64098438 C9.3023125,5.64098438 10.3605,6.69917188 10.3605,8 C10.3605,9.30082812 9.3023125,10.3590156 8.00148438,10.3590156 Z" id="形状" fill="#FFFFFF"></path>
                    </g>
                </g>
            </g>
        </g>
    </g>
</svg>