<?xml version="1.0" encoding="UTF-8"?>
<svg width="24px" height="24px" viewBox="0 0 24 24" version="1.1" xmlns="http://www.w3.org/2000/svg" xmlns:xlink="http://www.w3.org/1999/xlink">
    <!-- Generator: Sketch 57 (83077) - https://sketch.com -->
    <title>编组 21</title>
    <desc>Created with Sketch.</desc>
    <g id="2市场成员监测（完成）" stroke="none" stroke-width="1" fill="none" fill-rule="evenodd">
        <g id="二区-发电企业监测-电厂画像-收益" transform="translate(-296.000000, -281.000000)">
            <g id="编组-4" transform="translate(24.000000, 200.000000)">
                <g id="Group-7" transform="translate(272.000000, 81.000000)">
                    <g id="编组-21">
                        <circle id="椭圆形备份" fill="#48ACD8" cx="12" cy="12" r="12"></circle>
                        <g id="barrage_fill" transform="translate(4.000000, 4.000000)" fill-rule="nonzero">
                            <rect id="矩形" fill="#000000" opacity="0" x="0" y="0" width="16" height="16"></rect>
                            <path d="M8.5,7 L4.5,7 C4.22385763,7 4,6.77614237 4,6.5 C4,6.22385763 4.22385763,6 4.5,6 L8.5,6 C8.77614237,6 9,6.22385763 9,6.5 C9,6.77614237 8.77614237,7 8.5,7 M4,8.5 C4,8.22385763 4.22385763,8 4.5,8 L6.5,8 C6.77614237,8 7,8.22385763 7,8.5 C7,8.77614237 6.77614237,9 6.5,9 L4.5,9 C4.22385763,9 4,8.77614237 4,8.5 M4.5,10 L6.5,10 C6.77614237,10 7,10.2238576 7,10.5 C7,10.7761424 6.77614237,11 6.5,11 L4.5,11 C4.22385763,11 4,10.7761424 4,10.5 C4,10.2238576 4.22385763,10 4.5,10 M12.999,2.99999948 L3.001,2.99999948 C2.449689,2.99944531 2.00192931,3.4451921 2,3.9965 L2,12.0035 C2.00192931,12.5548079 2.449689,13.0005547 3.001,12.9999995 L12.999,12.9999995 C13.550311,13.0005547 13.9980707,12.5548079 14,12.0035 L14,3.9965 C13.9980707,3.4451921 13.550311,2.99944531 12.999,2.99999948" id="形状" fill="#FFFFFF"></path>
                        </g>
                    </g>
                </g>
            </g>
        </g>
    </g>
</svg>