<?xml version="1.0" encoding="UTF-8"?>
<svg width="52px" height="52px" viewBox="0 0 52 52" version="1.1" xmlns="http://www.w3.org/2000/svg" xmlns:xlink="http://www.w3.org/1999/xlink">
    <!-- Generator: Sketch 57 (83077) - https://sketch.com -->
    <title>编组 58</title>
    <desc>Created with Sketch.</desc>
    <defs>
        <circle id="path-1" cx="26" cy="26" r="20"></circle>
        <filter x="-13.8%" y="-13.8%" width="127.5%" height="127.5%" filterUnits="objectBoundingBox" id="filter-2">
            <feGaussianBlur stdDeviation="5.5" in="SourceAlpha" result="shadowBlurInner1"></feGaussianBlur>
            <feOffset dx="0" dy="0" in="shadowBlurInner1" result="shadowOffsetInner1"></feOffset>
            <feComposite in="shadowOffsetInner1" in2="SourceAlpha" operator="arithmetic" k2="-1" k3="1" result="shadowInnerInner1"></feComposite>
            <feColorMatrix values="0 0 0 0 0   0 0 0 0 0.760784314   0 0 0 0 0.458823529  0 0 0 1 0" type="matrix" in="shadowInnerInner1"></feColorMatrix>
        </filter>
    </defs>
    <g id="1全景动态（完成）" stroke="none" stroke-width="1" fill="none" fill-rule="evenodd">
        <g id="全景动态二区" transform="translate(-504.000000, -668.000000)">
            <g id="编组-17" transform="translate(480.000000, 198.000000)">
                <g id="编组-7" transform="translate(0.000000, 448.000000)">
                    <g id="编组-58" transform="translate(50.000000, 48.000000) scale(1, -1) translate(-50.000000, -48.000000) translate(24.000000, 22.000000)">
                        <g id="编组-15备份-2">
                            <circle id="椭圆形" stroke="#00C275" cx="26" cy="26" r="25.5"></circle>
                            <g id="椭圆形" fill="black" fill-opacity="1">
                                <use filter="url(#filter-2)" xlink:href="#path-1"></use>
                            </g>
                        </g>
                        <g id="up-square-fill" transform="translate(14.000000, 14.000000)" fill-rule="nonzero">
                            <rect id="矩形" fill="#000000" opacity="0" x="0" y="0" width="24" height="24"></rect>
                            <path d="M20.625,2.625 L3.375,2.625 C2.96015625,2.625 2.625,2.96015625 2.625,3.375 L2.625,20.625 C2.625,21.0398437 2.96015625,21.375 3.375,21.375 L20.625,21.375 C21.0398437,21.375 21.375,21.0398437 21.375,20.625 L21.375,3.375 C21.375,2.96015625 21.0398437,2.625 20.625,2.625 Z M10.39848,12.6325042 L11.389704,13.0912402 C10.552776,14.8994722 9.549192,15.8969842 8.335416,15.9912082 C7.219416,16.0777282 6.302736,15.8068882 5.625,15.1654402 L5.625,15.1654402 L6.375672,14.3722402 C6.812544,14.7855682 7.424544,14.9664082 8.251032,14.9022082 C8.97984,14.8456642 9.710352,14.1201442 10.39848,12.6325042 L10.39848,12.6325042 Z M14.715384,10.9883362 L14.715384,11.8075042 L13.274448,11.8075042 L13.274448,10.9883362 L14.715384,10.9883362 Z M12.311808,10.9883362 L12.311808,11.8075042 L10.87116,11.8075042 L10.87116,10.9883362 L12.311808,10.9883362 Z M17.118672,10.9883362 L17.118672,11.8075042 L15.677904,11.8075042 L15.677904,10.9883362 L17.118672,10.9883362 Z M9.908352,10.9883362 L9.908352,11.8075042 L8.467608,11.8075042 L8.467608,10.9883362 L9.908352,10.9883362 Z M7.505352,10.9883362 L7.505352,11.8075042 L6.06432,11.8075042 L6.06432,10.9883362 L7.505352,10.9883362 Z M14.787192,6.625 C15.755104,6.62879882 16.5579115,6.87299089 17.175021,7.36585195 L17.338704,7.50644017 L16.597872,8.30904817 C16.177872,7.92156817 15.582096,7.72056817 14.782608,7.71730417 C14.1539571,7.71471217 13.4522849,8.35026913 12.7295465,9.7149063 L12.608904,9.94911217 L11.632416,9.45944017 C12.56448,7.60095217 13.595544,6.62040817 14.787192,6.625 Z" id="形状" fill="#00C275"></path>
                        </g>
                    </g>
                </g>
            </g>
        </g>
    </g>
</svg>