<?xml version="1.0" encoding="UTF-8"?>
<svg width="52px" height="52px" viewBox="0 0 52 52" version="1.1" xmlns="http://www.w3.org/2000/svg" xmlns:xlink="http://www.w3.org/1999/xlink">
    <!-- Generator: Sketch 57 (83077) - https://sketch.com -->
    <title>编组 12</title>
    <desc>Created with Sketch.</desc>
    <defs>
        <circle id="path-1" cx="26" cy="26" r="20"></circle>
        <filter x="-13.8%" y="-13.8%" width="127.5%" height="127.5%" filterUnits="objectBoundingBox" id="filter-2">
            <feGaussianBlur stdDeviation="5.5" in="SourceAlpha" result="shadowBlurInner1"></feGaussianBlur>
            <feOffset dx="0" dy="0" in="shadowBlurInner1" result="shadowOffsetInner1"></feOffset>
            <feComposite in="shadowOffsetInner1" in2="SourceAlpha" operator="arithmetic" k2="-1" k3="1" result="shadowInnerInner1"></feComposite>
            <feColorMatrix values="0 0 0 0 0   0 0 0 0 0.764705882   0 0 0 0 0.792156863  0 0 0 1 0" type="matrix" in="shadowInnerInner1"></feColorMatrix>
        </filter>
    </defs>
    <g id="页面-1" stroke="none" stroke-width="1" fill="none" fill-rule="evenodd">
        <g id="全景动态二区2" transform="translate(-504.000000, -220.000000)">
            <g id="编组-5" transform="translate(480.000000, 198.000000)">
                <g id="编组-12" transform="translate(24.000000, 22.000000)">
                    <g id="编组-15">
                        <circle id="椭圆形" stroke="#00C3CA" cx="26" cy="26" r="25.5"></circle>
                        <g id="椭圆形" fill="black" fill-opacity="1">
                            <use filter="url(#filter-2)" xlink:href="#path-1"></use>
                        </g>
                    </g>
                    <g id="公司" transform="translate(14.000000, 14.000000)" fill-rule="nonzero">
                        <rect id="矩形" fill="#000000" opacity="0" x="0" y="0" width="24" height="24"></rect>
                        <path d="M22.032,20.22 L20.88,20.22 L20.88,7.104 C20.88,6.72 20.652,6.384 20.304,6.216 L14.556,3.216 C14.232,3.072 13.872,3.072 13.548,3.216 C13.188,3.36 12.96,3.708 12.972,5.604 L12.972,21.72 L11.82,21.72 L11.82,4.008 C11.82,2.064 11.82,1.776 11.388,1.62 C11.016,1.464 10.608,1.464 10.236,1.62 L3.66,5.088 C3.312,5.256 3.084,5.616 3.084,6 L3.084,20.232 L1.932,20.232 C1.644,20.232 1.5,20.388 1.5,20.532 L1.5,22.2 C1.5,22.344 1.644,22.5 1.932,22.5 L22.032,22.5 C22.164,22.5 22.44,22.344 22.464,22.2 L22.464,20.544 C22.5,20.364 22.188,20.22 22.032,20.22 Z M8.532,18.108 C8.532,18.276 8.4,18.408 8.232,18.408 L6.612,18.408 C6.444,18.408 6.312,18.276 6.312,18.108 L6.312,16.704 C6.312,16.536 6.444,16.404 6.612,16.404 L8.268,16.404 C8.436,16.404 8.568,16.536 8.568,16.704 L8.532,18.108 L8.532,18.108 Z M8.532,13.872 C8.532,14.04 8.4,14.172 8.232,14.172 L6.612,14.172 C6.444,14.172 6.312,14.04 6.312,13.872 L6.312,12.444 C6.312,12.276 6.444,12.144 6.612,12.144 L8.268,12.144 C8.436,12.144 8.568,12.276 8.568,12.444 L8.532,13.872 L8.532,13.872 Z M8.532,9.648 C8.532,9.816 8.4,9.948 8.232,9.948 L6.612,9.948 C6.444,9.948 6.312,9.816 6.312,9.648 L6.312,8.208 C6.312,8.04 6.444,7.908 6.612,7.908 L8.268,7.908 C8.436,7.908 8.568,8.04 8.568,8.208 L8.532,9.648 L8.532,9.648 Z M18,18.096 C18,18.264 17.868,18.396 17.7,18.396 L16.044,18.396 C15.876,18.396 15.744,18.264 15.744,18.096 L15.744,16.68 C15.744,16.512 15.876,16.38 16.044,16.38 L17.7,16.38 C17.868,16.38 18,16.512 18,16.68 L18,18.096 Z M18,13.86 C18,14.028 17.868,14.16 17.7,14.16 L16.044,14.16 C15.876,14.16 15.744,14.028 15.744,13.86 L15.744,12.444 C15.744,12.276 15.876,12.144 16.044,12.144 L17.7,12.144 C17.868,12.144 18,12.276 18,12.444 L18,13.86 L18,13.86 Z M18,9.636 C18,9.804 17.868,9.936 17.7,9.936 L16.044,9.936 C15.876,9.936 15.744,9.804 15.744,9.636 L15.744,8.208 C15.744,8.04 15.876,7.908 16.044,7.908 L17.7,7.908 C17.868,7.908 18,8.04 18,8.208 L18,9.636 Z" id="形状" fill="#00C3CA"></path>
                    </g>
                </g>
            </g>
        </g>
    </g>
</svg>