<?xml version="1.0" encoding="UTF-8"?>
<svg width="48px" height="56px" viewBox="0 0 48 56" version="1.1" xmlns="http://www.w3.org/2000/svg" xmlns:xlink="http://www.w3.org/1999/xlink">
    <!-- Generator: Sketch 57 (83077) - https://sketch.com -->
    <title>Group 8</title>
    <desc>Created with Sketch.</desc>
    <defs>
        <radialGradient cx="50%" cy="50%" fx="50%" fy="50%" r="50%" id="radialGradient-1">
            <stop stop-color="#73FAEB" stop-opacity="0" offset="0%"></stop>
            <stop stop-color="#59F7DF" stop-opacity="0.197852928" offset="69.03769%"></stop>
            <stop stop-color="#3FF3D3" stop-opacity="0.801710009" offset="100%"></stop>
        </radialGradient>
    </defs>
    <g id="2市场成员监测（完成）" stroke="none" stroke-width="1" fill="none" fill-rule="evenodd">
        <g id="二区-发电企业监测" transform="translate(-303.000000, -233.000000)">
            <g id="编组-15" transform="translate(284.000000, 200.000000)">
                <g id="Group-8" transform="translate(16.000000, 34.000000)">
                    <polygon id="Polygon" stroke="#3FF3D3" stroke-width="0.88" fill-opacity="0.45" fill="url(#radialGradient-1)" points="27 0 50.3826859 13.5 50.3826859 40.5 27 54 3.6173141 40.5 3.6173141 13.5"></polygon>
                    <path d="M36,18 L18.75,18 C18.3351563,18 18,18.3351563 18,18.75 L18,36 C18,36.4148438 18.3351563,36.75 18.75,36.75 L36,36.75 C36.4148438,36.75 36.75,36.4148438 36.75,36 L36.75,18.75 C36.75,18.3351563 36.4148438,18 36,18 Z M24.84375,31.3828125 L24.84375,33.1875 C24.84375,33.290625 24.759375,33.375 24.65625,33.375 L23.53125,33.375 C23.428125,33.375 23.34375,33.290625 23.34375,33.1875 L23.34375,31.3828125 C22.3664063,31.0640625 21.65625,30.1453125 21.65625,29.0625 C21.65625,27.9796875 22.3664063,27.0585938 23.34375,26.7421875 L23.34375,21.5625 C23.34375,21.459375 23.428125,21.375 23.53125,21.375 L24.65625,21.375 C24.759375,21.375 24.84375,21.459375 24.84375,21.5625 L24.84375,26.7421875 C25.8210937,27.0609375 26.53125,27.9796875 26.53125,29.0625 C26.53125,30.1453125 25.8210937,31.0664062 24.84375,31.3828125 Z M31.396875,28.0101563 C31.4015625,28.0101563 31.4039062,28.0078125 31.40625,28.0078125 L31.40625,33.1875 C31.40625,33.290625 31.321875,33.375 31.21875,33.375 L30.09375,33.375 C29.990625,33.375 29.90625,33.290625 29.90625,33.1875 L29.90625,28.0078125 C29.9109375,28.0078125 29.9132812,28.0101563 29.915625,28.0101563 C28.93125,27.6960938 28.21875,26.775 28.21875,25.6875 C28.21875,24.6 28.93125,23.6789063 29.915625,23.3648437 C29.9109375,23.3648437 29.9085938,23.3671875 29.90625,23.3671875 L29.90625,21.5625 C29.90625,21.459375 29.990625,21.375 30.09375,21.375 L31.21875,21.375 C31.321875,21.375 31.40625,21.459375 31.40625,21.5625 L31.40625,23.3671875 C31.4015625,23.3671875 31.3992188,23.3648437 31.396875,23.3648437 C32.38125,23.6789062 33.09375,24.6 33.09375,25.6875 C33.09375,26.775 32.38125,27.6960938 31.396875,28.0101563 Z M29.8125,25.6875 C29.8125,26.1534903 30.1902597,26.53125 30.65625,26.53125 C31.1222403,26.53125 31.5,26.1534903 31.5,25.6875 C31.5,25.2215097 31.1222403,24.84375 30.65625,24.84375 C30.1902597,24.84375 29.8125,25.2215097 29.8125,25.6875 Z M24.8296875,28.6523437 L24.7945312,28.5960937 C24.7945312,28.59375 24.7921875,28.59375 24.7921875,28.5914062 L24.7710937,28.5632812 C24.76875,28.5609375 24.7664062,28.5585937 24.7664062,28.55625 C24.7429687,28.5257812 24.7195312,28.4976562 24.6914062,28.471875 L24.6867187,28.4671875 C24.6773437,28.4578125 24.6679687,28.4484375 24.6585937,28.4414062 C24.6398437,28.4226562 24.61875,28.40625 24.5976562,28.3921875 L24.5953125,28.3921875 L24.5671875,28.3710937 C24.5648437,28.36875 24.5601562,28.3664062 24.5578125,28.3640625 C24.5296875,28.3453125 24.4992187,28.3265625 24.4664062,28.3125 C24.4617187,28.3101562 24.4546875,28.3078125 24.45,28.303125 C24.440625,28.2984375 24.4335937,28.2960937 24.4242187,28.2914062 C24.4171875,28.2890625 24.4078125,28.284375 24.4007812,28.2820312 C24.3890625,28.2773437 24.3773437,28.2726562 24.365625,28.2703125 C24.35625,28.2679687 24.3445312,28.2632812 24.3351562,28.2609375 L24.3140625,28.2539062 C24.3023437,28.2515625 24.2929687,28.2492187 24.28125,28.246875 C24.2765625,28.2445312 24.2695312,28.2445312 24.2648437,28.2421875 C24.2484375,28.2398437 24.2320312,28.2351562 24.215625,28.2328125 C24.2109375,28.2328125 24.20625,28.2328125 24.2015625,28.2304687 C24.1875,28.228125 24.1757812,28.228125 24.1617187,28.2257812 C24.1570312,28.2257812 24.1523437,28.2257812 24.1453125,28.2234375 C24.1265625,28.2234375 24.1101562,28.2210937 24.0914062,28.2210937 C24.0726562,28.2210937 24.05625,28.2210937 24.0375,28.2234375 C24.0328125,28.2234375 24.028125,28.2234375 24.0210937,28.2257812 C24.0070312,28.2257812 23.9929687,28.228125 23.98125,28.2304687 C23.9765625,28.2304687 23.971875,28.2304687 23.9671875,28.2328125 C23.9507812,28.2351562 23.934375,28.2375 23.9179687,28.2421875 C23.9132812,28.2445312 23.90625,28.2445312 23.9015625,28.246875 C23.8898437,28.2492187 23.8804687,28.2515625 23.86875,28.2539062 L23.8476562,28.2609375 C23.8382812,28.2632812 23.8265625,28.2679687 23.8171875,28.2703125 C23.8054687,28.275 23.79375,28.2796875 23.7820312,28.2820312 C23.775,28.284375 23.765625,28.2890625 23.7585937,28.2914062 C23.7492187,28.2960937 23.7421875,28.2984375 23.7328125,28.303125 C23.728125,28.3054687 23.7210937,28.3078125 23.7164062,28.3125 C23.6859375,28.3289062 23.6554687,28.3453125 23.625,28.3640625 C23.6226562,28.3664062 23.6179687,28.36875 23.615625,28.3710937 L23.5875,28.3921875 L23.5851562,28.3921875 C23.5640625,28.4085937 23.5429687,28.425 23.5242187,28.4414062 C23.5148437,28.4507812 23.5054687,28.4578125 23.4960937,28.4671875 L23.4914062,28.471875 C23.465625,28.4976562 23.4398437,28.528125 23.4164062,28.55625 C23.4140625,28.5585937 23.4117187,28.5609375 23.4117187,28.5632812 L23.390625,28.5914062 C23.390625,28.59375 23.3882812,28.59375 23.3882812,28.5960937 L23.353125,28.6523437 C23.3507812,28.6570312 23.3484375,28.659375 23.3460937,28.6640625 C23.2828125,28.7835937 23.2453125,28.9195312 23.2453125,29.0625 C23.2453125,29.2054687 23.2828125,29.34375 23.3460937,29.4609375 C23.3484375,29.465625 23.3507812,29.4679687 23.353125,29.4726562 L23.3882812,29.5289062 C23.3882812,29.53125 23.390625,29.53125 23.390625,29.5335937 L23.4117187,29.5617187 C23.4140625,29.5640625 23.4164062,29.5664062 23.4164062,29.56875 C23.4398437,29.5992187 23.4632812,29.6273437 23.4914062,29.653125 L23.4960937,29.6578125 C23.5054687,29.6671875 23.5148437,29.6765625 23.5242187,29.6835937 C23.5429687,29.7023437 23.5640625,29.71875 23.5851562,29.7328125 L23.5875,29.7328125 L23.615625,29.7539062 C23.6179687,29.75625 23.6226562,29.7585937 23.625,29.7609375 C23.653125,29.7796875 23.6835937,29.7984375 23.7164062,29.8125 C23.7210937,29.8148437 23.728125,29.8171875 23.7328125,29.821875 C23.7421875,29.8265625 23.7492187,29.8289062 23.7585937,29.8335937 C23.765625,29.8359375 23.775,29.840625 23.7820312,29.8429687 C23.79375,29.8476562 23.8054687,29.8523437 23.8171875,29.8546875 C23.8265625,29.8570312 23.8382812,29.8617187 23.8476562,29.8640625 L23.86875,29.8710937 C23.8804687,29.8734375 23.8898437,29.8757812 23.9015625,29.878125 C23.90625,29.8804687 23.9132812,29.8804687 23.9179687,29.8828125 C23.934375,29.8851562 23.9507812,29.8898437 23.9671875,29.8921875 C23.971875,29.8921875 23.9765625,29.8921875 23.98125,29.8945312 C23.9953125,29.896875 24.0070312,29.896875 24.0210937,29.8992187 C24.0257812,29.8992187 24.0304687,29.8992187 24.0375,29.9015625 C24.05625,29.9015625 24.0726562,29.9039062 24.0914062,29.9039062 C24.1101562,29.9039062 24.1265625,29.9039062 24.1453125,29.9015625 C24.15,29.9015625 24.1546875,29.9015625 24.1617187,29.8992187 C24.1757812,29.8992187 24.1898437,29.896875 24.2015625,29.8945312 C24.20625,29.8945312 24.2109375,29.8945312 24.215625,29.8921875 C24.2320312,29.8898437 24.2484375,29.8875 24.2648437,29.8828125 C24.2695312,29.8804687 24.2765625,29.8804687 24.28125,29.878125 C24.2929687,29.8757812 24.3023437,29.8734375 24.3140625,29.8710937 L24.3351562,29.8640625 C24.3445312,29.8617187 24.35625,29.8570312 24.365625,29.8546875 C24.3773437,29.85 24.3890625,29.8453125 24.4007812,29.8429687 C24.4078125,29.840625 24.4171875,29.8359375 24.4242187,29.8335937 C24.4335937,29.8289062 24.440625,29.8265625 24.45,29.821875 C24.4546875,29.8195312 24.4617187,29.8171875 24.4664062,29.8125 C24.496875,29.7960937 24.5273437,29.7796875 24.5578125,29.7609375 C24.5601562,29.7585937 24.5648437,29.75625 24.5671875,29.7539062 L24.5953125,29.7328125 L24.5976562,29.7328125 C24.61875,29.7164062 24.6398437,29.7 24.6585937,29.6835937 C24.6679687,29.6742187 24.6773437,29.6671875 24.6867187,29.6578125 L24.6914062,29.653125 C24.7171875,29.6273437 24.7429687,29.596875 24.7664062,29.56875 C24.76875,29.5664062 24.7710937,29.5640625 24.7710937,29.5617187 L24.7921875,29.5335937 C24.7921875,29.53125 24.7945312,29.53125 24.7945312,29.5289062 L24.8296875,29.4726562 C24.8320312,29.4679687 24.834375,29.465625 24.8367187,29.4609375 C24.9,29.3414062 24.9375,29.2054687 24.9375,29.0625 C24.9375,28.9195312 24.9,28.78125 24.8367187,28.6640625 C24.834375,28.659375 24.8320312,28.6546875 24.8296875,28.6523437 Z" id="形状" fill="#3FF3D3" fill-rule="nonzero"></path>
                </g>
            </g>
        </g>
    </g>
</svg>