<?xml version="1.0" encoding="UTF-8"?>
<svg width="32px" height="32px" viewBox="0 0 32 32" version="1.1" xmlns="http://www.w3.org/2000/svg" xmlns:xlink="http://www.w3.org/1999/xlink">
    <!-- Generator: Sketch 57 (83077) - https://sketch.com -->
    <title>编组 16</title>
    <desc>Created with Sketch.</desc>
    <defs>
        <circle id="path-1" cx="12" cy="12" r="12"></circle>
        <filter x="-29.2%" y="-20.8%" width="158.3%" height="158.3%" filterUnits="objectBoundingBox" id="filter-2">
            <feOffset dx="0" dy="2" in="SourceAlpha" result="shadowOffsetOuter1"></feOffset>
            <feGaussianBlur stdDeviation="2" in="shadowOffsetOuter1" result="shadowBlurOuter1"></feGaussianBlur>
            <feColorMatrix values="0 0 0 0 0   0 0 0 0 0   0 0 0 0 0  0 0 0 0.5 0" type="matrix" in="shadowBlurOuter1"></feColorMatrix>
        </filter>
    </defs>
    <g id="8全息反演" stroke="none" stroke-width="1" fill="none" fill-rule="evenodd">
        <g id="全系反演" transform="translate(-783.000000, -623.000000)">
            <g id="编组-4" transform="translate(322.000000, 477.000000)">
                <g id="编组-16" transform="translate(465.000000, 148.000000)">
                    <g id="椭圆形">
                        <use fill="black" fill-opacity="1" filter="url(#filter-2)" xlink:href="#path-1"></use>
                        <use fill="#3399FF" fill-rule="evenodd" xlink:href="#path-1"></use>
                    </g>
                    <path d="M9.5242538,10.9308388 C7.96267699,10.9308388 6.69653075,9.70649227 6.69653075,8.19606283 C6.69653075,6.68571967 7.96267699,5.46137315 9.5245204,5.46137315 C11.0860972,5.46137315 12.3519591,6.68571967 12.3519591,8.19606283 C12.3519591,9.70649227 11.0860972,10.9308388 9.5242538,10.9308388 Z M9.5242538,16.4003735 C7.02555317,16.4003735 5,15.7968885 5,14.2601095 C5,12.7234168 7.02555317,11.4778285 9.5242538,11.4778285 C12.0229544,11.4778285 14.0487742,12.7234168 14.0487742,14.2601095 C14.0487742,15.7968885 12.0229544,16.4003735 9.5242538,16.4003735 Z M8.28247498,18.1638238 C8.10223425,18.0740422 7.98594246,17.8968258 7.97837096,17.7002829 C7.97079946,17.5037918 8.07313909,17.3186204 8.2460216,17.2161041 C8.41881525,17.1135877 8.63522498,17.1096016 8.81192879,17.2057851 C9.70607637,17.6715003 10.705354,17.9143576 11.7200412,17.9125975 C15.1219895,17.9125975 17.880005,15.234938 17.880005,11.9320686 C17.880005,9.08419852 15.8139105,6.64736016 12.978065,6.07624693 C12.6751518,6.01524789 12.4806212,5.72735312 12.5435215,5.43333257 C12.6063507,5.13931201 12.9028121,4.95044794 13.2057253,5.01144698 C16.5584411,5.68671586 19,8.56659534 19,11.9320686 C19,15.8357139 15.7407905,19 11.7200412,19 C10.5205277,19.0016763 9.33942752,18.7143164 8.28247498,18.1638238 Z M15.9900456,13.2515978 C15.929367,13.4367001 15.7715564,13.5762818 15.5761193,13.6178854 C15.3806823,13.6594027 15.1771761,13.5965745 15.0424176,13.4530068 C14.9076592,13.309439 14.8619814,13.1069429 14.92266,12.9218579 C15.0268125,12.6048527 15.0799908,12.2721275 15.0799908,11.9320686 C15.0799908,10.7424406 14.4192443,9.6656997 13.3714451,9.09020352 C13.1087355,8.93949188 13.0186063,8.61230579 13.1688454,8.3544015 C13.3190845,8.09651447 13.6543632,8.00288482 13.9227603,8.14389873 C15.3303478,8.91507501 16.2006789,10.3628834 16.1999862,11.9320686 C16.1999862,12.3844278 16.1286253,12.8282972 15.9900456,13.2515978 Z" id="Fill-1" fill="#FFFFFF"></path>
                </g>
            </g>
        </g>
    </g>
</svg>