<?xml version="1.0" encoding="UTF-8"?>
<svg width="48px" height="56px" viewBox="0 0 48 56" version="1.1" xmlns="http://www.w3.org/2000/svg" xmlns:xlink="http://www.w3.org/1999/xlink">
    <!-- Generator: Sketch 57 (83077) - https://sketch.com -->
    <title>Group 8</title>
    <desc>Created with Sketch.</desc>
    <defs>
        <radialGradient cx="50%" cy="50%" fx="50%" fy="50%" r="50%" id="radialGradient-1">
            <stop stop-color="#73FAEB" stop-opacity="0" offset="0%"></stop>
            <stop stop-color="#59F7DF" stop-opacity="0.197852928" offset="69.03769%"></stop>
            <stop stop-color="#3FF3D3" stop-opacity="0.801710009" offset="100%"></stop>
        </radialGradient>
        <polygon id="path-2" points="0.00363905325 0.00913522538 40.9944797 0.00913522538 40.9944797 36 0.00363905325 36"></polygon>
    </defs>
    <g id="2市场成员监测（完成）" stroke="none" stroke-width="1" fill="none" fill-rule="evenodd">
        <g id="二区-发电企业监测" transform="translate(-563.000000, -233.000000)">
            <g id="编组-17" transform="translate(544.000000, 200.000000)">
                <g id="Group-8" transform="translate(16.000000, 34.000000)">
                    <polygon id="Polygon" stroke="#3FF3D3" stroke-width="0.88" fill-opacity="0.45" fill="url(#radialGradient-1)" points="27 0 50.3826859 13.5 50.3826859 40.5 27 54 3.6173141 40.5 3.6173141 13.5"></polygon>
                    <g id="jizu" transform="translate(7.000000, 9.000000)">
                        <mask id="mask-3" fill="white">
                            <use xlink:href="#path-2"></use>
                        </mask>
                        <g id="Clip-2"></g>
                        <path d="M27.9005744,10 L12.0975886,10 C11.4856926,10 11,10.5950892 11,11.316688 L11,15.8138827 C11,16.5456877 11.4959987,17.1322272 12.0975886,17.1322272 L27.9005744,17.1322272 C28.1960165,17.1262958 28.4753204,16.9951908 28.6692193,16.7714278 C28.8880978,16.5049963 29.0052201,16.1692316 29,15.8240889 L29,11.3115849 C29,10.5847761 28.5039219,10 27.9005744,10 Z M13.5463576,14.6014481 L15.1808233,14.6014481 L15.1808233,12.5786043 L13.5463576,12.5786043 L13.5463576,14.6014481 Z M21.8227057,15.6189217 L23.4555202,15.6189217 L23.4555202,11.5731271 L21.8227057,11.5731271 L21.8227057,15.6189217 Z M24.8480184,15.6189217 L26.4808063,15.6189217 L26.4808063,11.5731271 L24.8480184,11.5731271 L24.8480184,15.6189217 Z M27.9005744,18.8677461 L12.0975886,18.8677461 C11.4856926,18.8677461 11,19.462862 11,20.1844608 L11,24.6832852 C11,25.4152239 11.4959987,26 12.0975886,26 L27.9005744,26 C28.1962295,25.9948702 28.475853,25.8636849 28.6692193,25.6392006 C28.8880978,25.3734637 29.0053267,25.0382601 28.9998141,24.6936251 L28.9998141,20.1844608 C28.9998141,19.452629 28.5039219,18.8677461 27.9005744,18.8677461 Z M13.5463576,23.4693011 L15.1808233,23.4693011 L15.1808233,21.4463503 L13.5463576,21.4463503 L13.5463576,23.4693011 Z M21.8227057,24.4952175 L23.4555202,24.4952175 L23.4555202,20.4426632 L21.8227057,20.4426632 L21.8227057,24.4952175 Z M24.8480184,24.4952175 L26.4808063,24.4952175 L26.4808063,20.4426632 L24.8480184,20.4426632 L24.8480184,24.4952175 Z" id="Fill-1" fill="#3FF3D3" mask="url(#mask-3)"></path>
                    </g>
                </g>
            </g>
        </g>
    </g>
</svg>