<?xml version="1.0" encoding="UTF-8"?>
<svg width="52px" height="52px" viewBox="0 0 52 52" version="1.1" xmlns="http://www.w3.org/2000/svg" xmlns:xlink="http://www.w3.org/1999/xlink">
    <!-- Generator: Sketch 57 (83077) - https://sketch.com -->
    <title>编组 58</title>
    <desc>Created with Sketch.</desc>
    <defs>
        <circle id="path-1" cx="26" cy="26" r="20"></circle>
        <filter x="-13.8%" y="-13.8%" width="127.5%" height="127.5%" filterUnits="objectBoundingBox" id="filter-2">
            <feGaussianBlur stdDeviation="5.5" in="SourceAlpha" result="shadowBlurInner1"></feGaussianBlur>
            <feOffset dx="0" dy="0" in="shadowBlurInner1" result="shadowOffsetInner1"></feOffset>
            <feComposite in="shadowOffsetInner1" in2="SourceAlpha" operator="arithmetic" k2="-1" k3="1" result="shadowInnerInner1"></feComposite>
            <feColorMatrix values="0 0 0 0 0.764705882   0 0 0 0 0.152941176   0 0 0 0 0.603921569  0 0 0 1 0" type="matrix" in="shadowInnerInner1"></feColorMatrix>
        </filter>
    </defs>
    <g id="1全景动态（完成）" stroke="none" stroke-width="1" fill="none" fill-rule="evenodd">
        <g id="全景动态二区" transform="translate(-504.000000, -444.000000)">
            <g id="编组-17" transform="translate(480.000000, 198.000000)">
                <g id="编组-7" transform="translate(0.000000, 224.000000)">
                    <g id="编组-58" transform="translate(24.000000, 22.000000)">
                        <g id="编组-15备份-2">
                            <circle id="椭圆形" stroke="#C3279A" cx="26" cy="26" r="25.5"></circle>
                            <g id="椭圆形" fill="black" fill-opacity="1">
                                <use filter="url(#filter-2)" xlink:href="#path-1"></use>
                            </g>
                        </g>
                        <g id="up-square-fill" transform="translate(14.000000, 14.000000)" fill-rule="nonzero">
                            <rect id="矩形" fill="#000000" opacity="0" x="0" y="0" width="24" height="24"></rect>
                            <path d="M20.625,2.625 L3.375,2.625 C2.96015625,2.625 2.625,2.96015625 2.625,3.375 L2.625,20.625 C2.625,21.0398437 2.96015625,21.375 3.375,21.375 L20.625,21.375 C21.0398437,21.375 21.375,21.0398437 21.375,20.625 L21.375,3.375 C21.375,2.96015625 21.0398437,2.625 20.625,2.625 Z M16.171875,14.625 L15.0726563,14.625 C14.8335938,14.625 14.60625,14.5101563 14.465625,14.315625 L12,10.9078125 L9.534375,14.315625 C9.39375,14.5101562 9.16875,14.625 8.92734375,14.625 L7.828125,14.625 C7.67578125,14.625 7.58671875,14.4515625 7.67578125,14.3273438 L11.8476562,8.56171875 C11.9226563,8.45859375 12.075,8.45859375 12.15,8.56171875 L16.321875,14.3273438 C16.4132813,14.4515625 16.3242188,14.625 16.171875,14.625 Z" id="形状" fill="#C3279A"></path>
                        </g>
                    </g>
                </g>
            </g>
        </g>
    </g>
</svg>