<?xml version="1.0" encoding="UTF-8"?>
<svg width="52px" height="52px" viewBox="0 0 52 52" version="1.1" xmlns="http://www.w3.org/2000/svg" xmlns:xlink="http://www.w3.org/1999/xlink">
    <!-- Generator: Sketch 57 (83077) - https://sketch.com -->
    <title>编组 22</title>
    <desc>Created with Sketch.</desc>
    <defs>
        <circle id="path-1" cx="26" cy="26" r="20"></circle>
        <filter x="-13.8%" y="-13.8%" width="127.5%" height="127.5%" filterUnits="objectBoundingBox" id="filter-2">
            <feGaussianBlur stdDeviation="5.5" in="SourceAlpha" result="shadowBlurInner1"></feGaussianBlur>
            <feOffset dx="0" dy="0" in="shadowBlurInner1" result="shadowOffsetInner1"></feOffset>
            <feComposite in="shadowOffsetInner1" in2="SourceAlpha" operator="arithmetic" k2="-1" k3="1" result="shadowInnerInner1"></feComposite>
            <feColorMatrix values="0 0 0 0 0   0 0 0 0 0.764705882   0 0 0 0 0.792156863  0 0 0 1 0" type="matrix" in="shadowInnerInner1"></feColorMatrix>
        </filter>
    </defs>
    <g id="页面-1" stroke="none" stroke-width="1" fill="none" fill-rule="evenodd">
        <g id="全景动态二区2" transform="translate(-504.000000, -668.000000)">
            <g id="编组-5" transform="translate(480.000000, 198.000000)">
                <g id="编组-22" transform="translate(24.000000, 470.000000)">
                    <g id="编组-15备份-2">
                        <circle id="椭圆形" stroke="#00C3CA" cx="26" cy="26" r="25.5"></circle>
                        <g id="椭圆形" fill="black" fill-opacity="1">
                            <use filter="url(#filter-2)" xlink:href="#path-1"></use>
                        </g>
                    </g>
                    <g id="平均电量" transform="translate(14.000000, 14.000000)" fill-rule="nonzero">
                        <rect id="矩形" fill="#000000" opacity="0" x="0" y="0" width="24" height="24"></rect>
                        <path d="M18.6666667,21.6666667 L18.6666667,22.4446667 C18.6666667,23.3036535 17.9703202,24 17.1113333,24 L6.88866666,24 C6.02967978,24 5.33333334,23.3036535 5.33333334,22.4446667 L5.33333334,21.6666667 L4.26133334,21.6666667 C3.48477945,21.6666667 2.7400312,21.3581818 2.19092468,20.8090753 C1.64181816,20.2599688 1.33333334,19.5152205 1.33333334,18.7386667 L1.33333334,2.928 C1.33333334,1.31091025 2.64424359,0 4.26133334,0 L19.7386667,0 C20.5152205,0 21.2599688,0.308484829 21.8090753,0.857591345 C22.3581818,1.40669786 22.6666667,2.15144612 22.6666667,2.928 L22.6666667,18.7386667 C22.6666667,20.3557564 21.3557564,21.6666667 19.7386667,21.6666667 L18.6666667,21.6666667 Z M4.26133334,1.99999999 C3.74881308,1.99999999 3.33333333,2.41547975 3.33333333,2.928 L3.33333333,18.7386667 C3.33333333,19.2511869 3.74881308,19.6666667 4.26133334,19.6666667 L19.7386667,19.6666667 C20.2511869,19.6666667 20.6666667,19.2511869 20.6666667,18.7386667 L20.6666667,2.928 C20.6666667,2.41547975 20.2511869,1.99999999 19.7386667,1.99999999 L4.26133334,1.99999999 Z M16.0966667,11.993 L14.3376667,11.993 L14.3376667,10.993 L16.0966667,10.993 L16.0966667,11.993 Z M13.1626667,10.993 L11.404,10.993 L11.404,11.993 L13.1626667,11.993 L13.1626667,10.993 Z M19.0303333,10.993 L17.2716667,10.993 L17.2716667,11.993 L19.0303333,11.993 L19.0303333,10.993 Z M10.229,10.993 L8.47000001,10.993 L8.47000001,11.993 L10.2286667,11.993 L10.2286667,10.993 L10.229,10.993 Z M7.29533334,10.993 L5.53633334,10.993 L5.53633334,11.993 L7.29533334,11.993 L7.29533334,10.993 Z M13.5253333,9.72433334 C14.4593333,7.86133334 15.3686667,6.99666668 16.1786667,7.00000001 C17.1546667,7.00400002 17.882,7.24933334 18.3946667,7.72233333 L19.299,6.74266666 C18.5223333,6.02599999 17.4733333,5.67166666 16.1843333,5.66664665 C14.7296667,5.661 13.471,6.858 12.3333333,9.12666666 L13.5253333,9.72433334 Z M4.99999999,16.092 C5.82733334,16.875 6.94633334,17.2056667 8.30866666,17.1 C9.79033334,16.985 11.0153333,15.7673333 12.037,13.56 L10.827,13 C9.987,14.816 9.09533334,15.7016667 8.20566666,15.7706667 C7.19666665,15.849 6.44966665,15.6283333 5.91633333,15.1236667 L4.99999999,16.092 Z" id="形状" fill="#00C3CA"></path>
                    </g>
                </g>
            </g>
        </g>
    </g>
</svg>