<?xml version="1.0" encoding="UTF-8"?>
<svg width="52px" height="52px" viewBox="0 0 52 52" version="1.1" xmlns="http://www.w3.org/2000/svg" xmlns:xlink="http://www.w3.org/1999/xlink">
    <!-- Generator: Sketch 57 (83077) - https://sketch.com -->
    <title>编组 57</title>
    <desc>Created with Sketch.</desc>
    <defs>
        <circle id="path-1" cx="26" cy="26" r="20"></circle>
        <filter x="-13.8%" y="-13.8%" width="127.5%" height="127.5%" filterUnits="objectBoundingBox" id="filter-2">
            <feGaussianBlur stdDeviation="5.5" in="SourceAlpha" result="shadowBlurInner1"></feGaussianBlur>
            <feOffset dx="0" dy="0" in="shadowBlurInner1" result="shadowOffsetInner1"></feOffset>
            <feComposite in="shadowOffsetInner1" in2="SourceAlpha" operator="arithmetic" k2="-1" k3="1" result="shadowInnerInner1"></feComposite>
            <feColorMatrix values="0 0 0 0 0   0 0 0 0 0.764705882   0 0 0 0 0.792156863  0 0 0 1 0" type="matrix" in="shadowInnerInner1"></feColorMatrix>
        </filter>
    </defs>
    <g id="页面-1" stroke="none" stroke-width="1" fill="none" fill-rule="evenodd">
        <g id="全景动态二区" transform="translate(-504.000000, -332.000000)">
            <g id="编组-23" transform="translate(480.000000, 198.000000)">
                <g id="编组-18" transform="translate(0.000000, 112.000000)">
                    <g id="编组-57" transform="translate(24.000000, 22.000000)">
                        <g id="编组-15备份">
                            <circle id="椭圆形" stroke="#00C3CA" cx="26" cy="26" r="25.5"></circle>
                            <g id="椭圆形" fill="black" fill-opacity="1">
                                <use filter="url(#filter-2)" xlink:href="#path-1"></use>
                            </g>
                        </g>
                        <g id="control-fill" transform="translate(14.000000, 14.000000)" fill-rule="nonzero">
                            <rect id="矩形" fill="#000000" opacity="0" x="0" y="0" width="24" height="24"></rect>
                            <path d="M20.625,2.625 L3.375,2.625 C2.96015625,2.625 2.625,2.96015625 2.625,3.375 L2.625,20.625 C2.625,21.0398437 2.96015625,21.375 3.375,21.375 L20.625,21.375 C21.0398437,21.375 21.375,21.0398437 21.375,20.625 L21.375,3.375 C21.375,2.96015625 21.0398437,2.625 20.625,2.625 Z M9.46875,16.0078125 L9.46875,17.8125 C9.46875,17.915625 9.384375,18 9.28125,18 L8.15625,18 C8.053125,18 7.96875,17.915625 7.96875,17.8125 L7.96875,16.0078125 C6.99140625,15.6890625 6.28125,14.7703125 6.28125,13.6875 C6.28125,12.6046875 6.99140625,11.6835938 7.96875,11.3671875 L7.96875,6.1875 C7.96875,6.084375 8.053125,6 8.15625,6 L9.28125,6 C9.384375,6 9.46875,6.084375 9.46875,6.1875 L9.46875,11.3671875 C10.4460937,11.6859375 11.15625,12.6046875 11.15625,13.6875 C11.15625,14.7703125 10.4460937,15.6914062 9.46875,16.0078125 Z M16.021875,12.6351563 C16.0265625,12.6351563 16.0289062,12.6328125 16.03125,12.6328125 L16.03125,17.8125 C16.03125,17.915625 15.946875,18 15.84375,18 L14.71875,18 C14.615625,18 14.53125,17.915625 14.53125,17.8125 L14.53125,12.6328125 C14.5359375,12.6328125 14.5382812,12.6351563 14.540625,12.6351563 C13.55625,12.3210938 12.84375,11.4 12.84375,10.3125 C12.84375,9.225 13.55625,8.30390625 14.540625,7.98984375 C14.5359375,7.98984375 14.5335938,7.9921875 14.53125,7.9921875 L14.53125,6.1875 C14.53125,6.084375 14.615625,6 14.71875,6 L15.84375,6 C15.946875,6 16.03125,6.084375 16.03125,6.1875 L16.03125,7.9921875 C16.0265625,7.9921875 16.0242188,7.98984375 16.021875,7.98984375 C17.00625,8.30390625 17.71875,9.225 17.71875,10.3125 C17.71875,11.4 17.00625,12.3210938 16.021875,12.6351563 Z M14.4375,10.3125 C14.4375,10.7784903 14.8152597,11.15625 15.28125,11.15625 C15.7472403,11.15625 16.125,10.7784903 16.125,10.3125 C16.125,9.84650974 15.7472403,9.46875 15.28125,9.46875 C14.8152597,9.46875 14.4375,9.84650974 14.4375,10.3125 Z M9.4546875,13.2773438 L9.41953125,13.2210938 C9.41953125,13.21875 9.4171875,13.21875 9.4171875,13.2164063 L9.39609375,13.1882812 C9.39375,13.1859375 9.39140625,13.1835937 9.39140625,13.18125 C9.36796875,13.1507813 9.34453125,13.1226563 9.31640625,13.096875 L9.31171875,13.0921875 C9.30234375,13.0828125 9.29296875,13.0734375 9.28359375,13.0664062 C9.26484375,13.0476562 9.24375,13.03125 9.22265625,13.0171875 L9.2203125,13.0171875 L9.1921875,12.9960937 C9.18984375,12.99375 9.18515625,12.9914062 9.1828125,12.9890625 C9.1546875,12.9703125 9.12421875,12.9515625 9.09140625,12.9375 C9.08671875,12.9351562 9.0796875,12.9328125 9.075,12.928125 C9.065625,12.9234375 9.05859375,12.9210938 9.04921875,12.9164062 C9.0421875,12.9140625 9.0328125,12.909375 9.02578125,12.9070312 C9.0140625,12.9023437 9.00234375,12.8976563 8.990625,12.8953125 C8.98125,12.8929687 8.96953125,12.8882813 8.96015625,12.8859375 L8.9390625,12.8789063 C8.92734375,12.8765625 8.91796875,12.8742188 8.90625,12.871875 C8.9015625,12.8695313 8.89453125,12.8695313 8.88984375,12.8671875 C8.8734375,12.8648438 8.85703125,12.8601563 8.840625,12.8578125 C8.8359375,12.8578125 8.83125,12.8578125 8.8265625,12.8554688 C8.8125,12.853125 8.80078125,12.853125 8.78671875,12.8507813 C8.78203125,12.8507813 8.77734375,12.8507813 8.7703125,12.8484375 C8.7515625,12.8484375 8.73515625,12.8460937 8.71640625,12.8460937 C8.69765625,12.8460937 8.68125,12.8460937 8.6625,12.8484375 C8.6578125,12.8484375 8.653125,12.8484375 8.64609375,12.8507813 C8.63203125,12.8507813 8.61796875,12.853125 8.60625,12.8554688 C8.6015625,12.8554688 8.596875,12.8554688 8.5921875,12.8578125 C8.57578125,12.8601563 8.559375,12.8625 8.54296875,12.8671875 C8.53828125,12.8695313 8.53125,12.8695313 8.5265625,12.871875 C8.51484375,12.8742188 8.50546875,12.8765625 8.49375,12.8789063 L8.47265625,12.8859375 C8.46328125,12.8882813 8.4515625,12.8929687 8.4421875,12.8953125 C8.43046875,12.9 8.41875,12.9046875 8.40703125,12.9070312 C8.4,12.909375 8.390625,12.9140625 8.38359375,12.9164062 C8.37421875,12.9210938 8.3671875,12.9234375 8.3578125,12.928125 C8.353125,12.9304687 8.34609375,12.9328125 8.34140625,12.9375 C8.3109375,12.9539062 8.28046875,12.9703125 8.25,12.9890625 C8.24765625,12.9914063 8.24296875,12.99375 8.240625,12.9960937 L8.2125,13.0171875 L8.21015625,13.0171875 C8.1890625,13.0335937 8.16796875,13.05 8.14921875,13.0664062 C8.13984375,13.0757812 8.13046875,13.0828125 8.12109375,13.0921875 L8.11640625,13.096875 C8.090625,13.1226563 8.06484375,13.153125 8.04140625,13.18125 C8.0390625,13.1835938 8.03671875,13.1859375 8.03671875,13.1882812 L8.015625,13.2164063 C8.015625,13.21875 8.01328125,13.21875 8.01328125,13.2210938 L7.978125,13.2773438 C7.97578125,13.2820313 7.9734375,13.284375 7.97109375,13.2890625 C7.9078125,13.4085938 7.8703125,13.5445313 7.8703125,13.6875 C7.8703125,13.8304688 7.9078125,13.96875 7.97109375,14.0859375 C7.9734375,14.090625 7.97578125,14.0929688 7.978125,14.0976563 L8.01328125,14.1539063 C8.01328125,14.15625 8.015625,14.15625 8.015625,14.1585938 L8.03671875,14.1867188 C8.0390625,14.1890625 8.04140625,14.1914063 8.04140625,14.19375 C8.06484375,14.2242188 8.08828125,14.2523438 8.11640625,14.278125 L8.12109375,14.2828125 C8.13046875,14.2921875 8.13984375,14.3015625 8.14921875,14.3085938 C8.16796875,14.3273438 8.1890625,14.34375 8.21015625,14.3578125 L8.2125,14.3578125 L8.240625,14.3789063 C8.24296875,14.38125 8.24765625,14.3835938 8.25,14.3859375 C8.278125,14.4046875 8.30859375,14.4234375 8.34140625,14.4375 C8.34609375,14.4398438 8.353125,14.4421875 8.3578125,14.446875 C8.3671875,14.4515625 8.37421875,14.4539063 8.38359375,14.4585938 C8.390625,14.4609375 8.4,14.465625 8.40703125,14.4679688 C8.41875,14.4726563 8.43046875,14.4773438 8.4421875,14.4796875 C8.4515625,14.4820313 8.46328125,14.4867188 8.47265625,14.4890625 L8.49375,14.4960938 C8.50546875,14.4984375 8.51484375,14.5007813 8.5265625,14.503125 C8.53125,14.5054688 8.53828125,14.5054688 8.54296875,14.5078125 C8.559375,14.5101563 8.57578125,14.5148438 8.5921875,14.5171875 C8.596875,14.5171875 8.6015625,14.5171875 8.60625,14.5195313 C8.6203125,14.521875 8.63203125,14.521875 8.64609375,14.5242188 C8.65078125,14.5242188 8.65546875,14.5242188 8.6625,14.5265625 C8.68125,14.5265625 8.69765625,14.5289063 8.71640625,14.5289063 C8.73515625,14.5289063 8.7515625,14.5289063 8.7703125,14.5265625 C8.775,14.5265625 8.7796875,14.5265625 8.78671875,14.5242188 C8.80078125,14.5242188 8.81484375,14.521875 8.8265625,14.5195313 C8.83125,14.5195313 8.8359375,14.5195313 8.840625,14.5171875 C8.85703125,14.5148438 8.8734375,14.5125 8.88984375,14.5078125 C8.89453125,14.5054688 8.9015625,14.5054688 8.90625,14.503125 C8.91796875,14.5007812 8.92734375,14.4984375 8.9390625,14.4960938 L8.96015625,14.4890625 C8.96953125,14.4867188 8.98125,14.4820313 8.990625,14.4796875 C9.00234375,14.475 9.0140625,14.4703125 9.02578125,14.4679688 C9.0328125,14.465625 9.0421875,14.4609375 9.04921875,14.4585938 C9.05859375,14.4539063 9.065625,14.4515625 9.075,14.446875 C9.0796875,14.4445313 9.08671875,14.4421875 9.09140625,14.4375 C9.121875,14.4210938 9.15234375,14.4046875 9.1828125,14.3859375 C9.18515625,14.3835938 9.18984375,14.38125 9.1921875,14.3789063 L9.2203125,14.3578125 L9.22265625,14.3578125 C9.24375,14.3414063 9.26484375,14.325 9.28359375,14.3085938 C9.29296875,14.2992188 9.30234375,14.2921875 9.31171875,14.2828125 L9.31640625,14.278125 C9.3421875,14.2523438 9.36796875,14.221875 9.39140625,14.19375 C9.39375,14.1914063 9.39609375,14.1890625 9.39609375,14.1867188 L9.4171875,14.1585938 C9.4171875,14.15625 9.41953125,14.15625 9.41953125,14.1539063 L9.4546875,14.0976563 C9.45703125,14.0929688 9.459375,14.090625 9.46171875,14.0859375 C9.525,13.9664063 9.5625,13.8304688 9.5625,13.6875 C9.5625,13.5445313 9.525,13.40625 9.46171875,13.2890625 C9.459375,13.284375 9.45703125,13.2796875 9.4546875,13.2773438 Z" id="形状" fill="#00C3CA"></path>
                        </g>
                    </g>
                </g>
            </g>
        </g>
    </g>
</svg>