<?xml version="1.0" encoding="UTF-8"?>
<svg width="52px" height="52px" viewBox="0 0 52 52" version="1.1" xmlns="http://www.w3.org/2000/svg" xmlns:xlink="http://www.w3.org/1999/xlink">
    <!-- Generator: Sketch 57 (83077) - https://sketch.com -->
    <title>编组 54</title>
    <desc>Created with Sketch.</desc>
    <defs>
        <circle id="path-1" cx="26" cy="26" r="20"></circle>
        <filter x="-13.8%" y="-13.8%" width="127.5%" height="127.5%" filterUnits="objectBoundingBox" id="filter-2">
            <feGaussianBlur stdDeviation="5.5" in="SourceAlpha" result="shadowBlurInner1"></feGaussianBlur>
            <feOffset dx="0" dy="0" in="shadowBlurInner1" result="shadowOffsetInner1"></feOffset>
            <feComposite in="shadowOffsetInner1" in2="SourceAlpha" operator="arithmetic" k2="-1" k3="1" result="shadowInnerInner1"></feComposite>
            <feColorMatrix values="0 0 0 0 0   0 0 0 0 0.764705882   0 0 0 0 0.792156863  0 0 0 1 0" type="matrix" in="shadowInnerInner1"></feColorMatrix>
        </filter>
    </defs>
    <g id="页面-1" stroke="none" stroke-width="1" fill="none" fill-rule="evenodd">
        <g id="全景动态二区" transform="translate(-504.000000, -220.000000)">
            <g id="编组-23" transform="translate(480.000000, 198.000000)">
                <g id="编组-17">
                    <g id="编组-54" transform="translate(24.000000, 22.000000)">
                        <g id="编组-15">
                            <circle id="椭圆形" stroke="#00C3CA" cx="26" cy="26" r="25.5"></circle>
                            <g id="椭圆形" fill="black" fill-opacity="1">
                                <use filter="url(#filter-2)" xlink:href="#path-1"></use>
                            </g>
                        </g>
                        <g id="account-book-fill" transform="translate(14.000000, 14.000000)" fill-rule="nonzero">
                            <rect id="矩形" fill="#000000" opacity="0" x="0" y="0" width="24" height="24"></rect>
                            <path d="M20.625,4.3125 L16.6875,4.3125 L16.6875,2.8125 C16.6875,2.709375 16.603125,2.625 16.5,2.625 L15.1875,2.625 C15.084375,2.625 15,2.709375 15,2.8125 L15,4.3125 L9,4.3125 L9,2.8125 C9,2.709375 8.915625,2.625 8.8125,2.625 L7.5,2.625 C7.396875,2.625 7.3125,2.709375 7.3125,2.8125 L7.3125,4.3125 L3.375,4.3125 C2.96015625,4.3125 2.625,4.64765625 2.625,5.0625 L2.625,20.625 C2.625,21.0398437 2.96015625,21.375 3.375,21.375 L20.625,21.375 C21.0398437,21.375 21.375,21.0398437 21.375,20.625 L21.375,5.0625 C21.375,4.64765625 21.0398437,4.3125 20.625,4.3125 Z M15.1945313,10.003125 L13.1390625,13.7789062 L14.2101563,13.7789062 C14.3390625,13.7789062 14.4445313,13.884375 14.4445313,14.0132812 L14.4445313,14.5125 C14.4445313,14.6414062 14.3390625,14.746875 14.2101563,14.746875 L12.7242188,14.746875 L12.7242188,15.4429687 L14.2101563,15.4429687 C14.3390625,15.4429687 14.4445313,15.5484375 14.4445313,15.6773437 L14.4445313,16.1765625 C14.4445313,16.3054687 14.3390625,16.4109375 14.2101563,16.4109375 L12.7242188,16.4109375 L12.7242188,17.625 C12.7242188,17.7539062 12.61875,17.859375 12.4898438,17.859375 L11.521875,17.859375 C11.3929688,17.859375 11.2875,17.7539062 11.2875,17.625 L11.2875,16.4109375 L9.80859375,16.4109375 C9.6796875,16.4109375 9.57421875,16.3054688 9.57421875,16.1765625 L9.57421875,15.6773438 C9.57421875,15.5484375 9.6796875,15.4429688 9.80859375,15.4429688 L11.2875,15.4429688 L11.2875,14.746875 L9.80859375,14.746875 C9.6796875,14.746875 9.57421875,14.6414062 9.57421875,14.5125 L9.57421875,14.0132813 C9.57421875,13.884375 9.6796875,13.7789063 9.80859375,13.7789063 L10.8679687,13.7789063 L8.80546875,10.003125 C8.74453125,9.890625 8.784375,9.74765625 8.89921875,9.684375 C8.934375,9.665625 8.971875,9.65625 9.01171875,9.65625 L10.0898438,9.65625 C10.1789063,9.65625 10.2585937,9.70546875 10.2984375,9.78515625 L12.0070313,13.1671875 L13.7226563,9.78515625 C13.7625,9.70546875 13.8445313,9.65625 13.93125,9.65625 L14.9859375,9.65625 C15.1148438,9.65625 15.2203125,9.76171875 15.2203125,9.890625 C15.2226562,9.93046875 15.2132813,9.96796875 15.1945313,10.003125 Z" id="形状" fill="#00C3CA"></path>
                        </g>
                    </g>
                </g>
            </g>
        </g>
    </g>
</svg>