<?xml version="1.0" encoding="UTF-8"?>
<svg width="48px" height="56px" viewBox="0 0 48 56" version="1.1" xmlns="http://www.w3.org/2000/svg" xmlns:xlink="http://www.w3.org/1999/xlink">
    <!-- Generator: Sketch 57 (83077) - https://sketch.com -->
    <title>Group 8</title>
    <desc>Created with Sketch.</desc>
    <defs>
        <polygon id="path-1" points="0.00123569794 0.01986875 17.9916384 0.01986875 17.9916384 16.9787925 0.00123569794 16.9787925"></polygon>
        <radialGradient cx="50%" cy="50%" fx="50%" fy="50%" r="50%" id="radialGradient-3">
            <stop stop-color="#73FAEB" stop-opacity="0" offset="0%"></stop>
            <stop stop-color="#59F7DF" stop-opacity="0.197852928" offset="69.03769%"></stop>
            <stop stop-color="#3FF3D3" stop-opacity="0.801710009" offset="100%"></stop>
        </radialGradient>
    </defs>
    <g id="2市场成员监测（完成）" stroke="none" stroke-width="1" fill="none" fill-rule="evenodd">
        <g id="二区-发电企业监测" transform="translate(-43.000000, -233.000000)">
            <g id="编组-5" transform="translate(24.000000, 200.000000)">
                <g id="Group-8" transform="translate(16.000000, 34.000000)">
                    <g id="zhuangjirongliang" transform="translate(18.000000, 19.000000)">
                        <mask id="mask-2" fill="white">
                            <use xlink:href="#path-1"></use>
                        </mask>
                        <g id="Clip-2"></g>
                        <path d="M17.9916384,3.54205625 L17.9916384,2.1598925 C17.9916384,1.91893875 17.8023295,1.72352375 17.5687208,1.72352375 L15.1944096,1.72352375 L15.1944096,0.4353275 C15.1931327,0.206635 15.0134005,0.02169625 14.7916957,0.0210375 C14.5695789,0.02169625 14.3896819,0.207315 14.3890435,0.43649625 L14.3890435,1.7246925 L11.3421213,1.7246925 L11.3421213,0.4353275 C11.3414622,0.20614625 11.1615034,0.02054875 10.9393867,0.01986875 C10.7177437,0.0211225 10.5385057,0.206635 10.5378673,0.4353275 L10.5378673,1.72352375 L7.48867963,1.72352375 L7.48867963,0.4353275 C7.48804119,0.206635 7.3088032,0.0211225 7.0870778,0.01986875 C6.8649611,0.02054875 6.68508467,0.20614625 6.68442563,0.4353275 L6.68442563,1.72352375 L3.63863616,1.72352375 L3.63863616,0.4353275 C3.63733867,0.20706 3.45834783,0.02229125 3.23703432,0.0210375 C3.01491762,0.02169625 2.83502059,0.207315 2.83438215,0.43649625 L2.83438215,1.7246925 L0.42291762,1.7246925 C0.189782609,1.7246925 0.000638443936,1.9193425 0,2.1598925 L0,15.4015537 C0,15.641785 0.188979405,15.836775 0.42291762,15.836775 L2.69270938,15.836775 L2.69270938,16.5435712 C2.69270938,16.7838025 2.88160641,16.9787925 3.11554462,16.9787925 L5.87687643,16.9787925 C6.10953776,16.9781338 6.29804348,16.7836325 6.29868192,16.5435712 L6.29868192,15.836775 L11.6907735,15.836775 L11.6907735,16.5435712 C11.6907735,16.7838025 11.8796705,16.9787925 12.1125789,16.9787925 L14.8715835,16.9787925 C15.1047185,16.9787925 15.2938627,16.7840575 15.2945011,16.5435712 L15.2945011,15.836775 L17.5687208,15.836775 C17.8018558,15.836775 17.9910618,15.6421038 17.9916384,15.4015537 L17.9916384,5.15756625 L17.1863341,5.15756625 L17.1863341,3.54205625 L17.9916384,3.54205625 Z M3.37427918,11.6275325 L4.49903204,11.6275325 L4.49903204,5.82485875 L3.37427918,5.82485875 L3.37427918,11.6275325 Z M6.74855835,11.6275325 L7.87331121,11.6275325 L7.87331121,5.82485875 L6.74855835,5.82485875 L6.74855835,11.6275325 Z M10.1228375,11.6275325 L11.2475904,11.6275325 L11.2475904,5.82485875 L10.1228375,5.82485875 L10.1228375,11.6275325 Z M13.4970961,11.6275325 L14.6218696,11.6275325 L14.6218696,5.82485875 L13.4970961,5.82485875 L13.4970961,11.6275325 Z" id="Fill-1" fill="#3FF3D3" mask="url(#mask-2)"></path>
                    </g>
                    <polygon id="Polygon" stroke="#3FF3D3" stroke-width="0.88" fill-opacity="0.45" fill="url(#radialGradient-3)" points="27 0 50.3826859 13.5 50.3826859 40.5 27 54 3.6173141 40.5 3.6173141 13.5"></polygon>
                </g>
            </g>
        </g>
    </g>
</svg>