<?xml version="1.0" encoding="UTF-8"?>
<svg width="16px" height="16px" viewBox="0 0 16 16" version="1.1" xmlns="http://www.w3.org/2000/svg" xmlns:xlink="http://www.w3.org/1999/xlink">
    <!-- Generator: Sketch 57 (83077) - https://sketch.com -->
    <title>编组 28</title>
    <desc>Created with Sketch.</desc>
    <g id="11.22" stroke="none" stroke-width="1" fill="none" fill-rule="evenodd">
        <g id="市场结构评估—看板" transform="translate(-521.000000, -38.000000)">
            <g id="编组-27" transform="translate(521.000000, 32.000000)">
                <g id="编组-28" transform="translate(0.000000, 6.000000)">
                    <rect id="矩形" x="0" y="0" width="16" height="16"></rect>
                    <path d="M8.37571527,14.9908502 C8.20853261,14.9908502 8.11625917,14.9707838 8.05749902,14.9019345 C8.02216297,14.8605385 4.46930781,10.6435737 3.52254172,8.60142223 C3.18050162,7.86988622 3,7.07556077 3,6.30040633 C3,3.37712431 5.41143705,1 8.37571527,1 C11.3399935,1 13.7514305,3.39356117 13.7514305,6.33483098 C13.7514305,7.2234445 13.5848555,7.89486128 13.1765883,8.65202792 C12.0476897,10.7440495 8.73188978,14.852544 8.69877623,14.8935402 C8.65920306,14.9430106 8.58853098,14.9908502 8.38399766,14.9908502 L8.37571527,14.9908502 L8.37571527,14.9908502 Z M8.37571527,4.25542481 C7.23572019,4.25542481 6.30812509,5.18300391 6.30812509,6.32301498 C6.30812509,7.46302606 7.23572019,8.39060516 8.37571527,8.39060516 C9.51571034,8.39060516 10.4433054,7.46302606 10.4433054,6.32301498 C10.4433054,5.18300391 9.51571034,4.25542481 8.37571527,4.25542481 Z" id="形状" fill="#FFFFFF" fill-rule="nonzero"></path>
                </g>
            </g>
        </g>
    </g>
</svg>