<?xml version="1.0" encoding="UTF-8"?>
<svg width="15px" height="14px" viewBox="0 0 15 14" version="1.1" xmlns="http://www.w3.org/2000/svg" xmlns:xlink="http://www.w3.org/1999/xlink">
    <!-- Generator: Sketch 57 (83077) - https://sketch.com -->
    <title>市场</title>
    <desc>Created with Sketch.</desc>
    <g id="11.22" stroke="none" stroke-width="1" fill="none" fill-rule="evenodd">
        <g id="地区切换" transform="translate(-897.000000, -93.000000)" fill-rule="nonzero">
            <g id="编组-8" transform="translate(712.000000, 57.000000)">
                <g id="市场" transform="translate(184.000000, 35.000000)">
                    <rect id="矩形" fill="#000000" opacity="0" x="0" y="0" width="16" height="16"></rect>
                    <path d="M13.0062152,13 L10.3397152,13 L10.3397152,10.3335 C10.3397152,9.9335 10.0732152,9.667 9.67321516,9.667 L7.00671516,9.667 C6.60671516,9.667 6.34021516,9.9335 6.34021516,10.3335 L6.34021516,13 L3.67371516,13 L3.67371516,9.6665 L2.34021516,9.6665 L2.34021516,13.6665 C2.34021516,14.0665 2.60671516,14.333 3.00671516,14.333 L13.6732152,14.333 C14.0732152,14.333 14.3397152,14.0665 14.3397152,13.6665 L14.3397152,9.6665 L13.0062152,9.6665 L13.0062152,13 Z M7.67321516,13 L7.67321516,11 L9.00671516,11 L9.00671516,13 L7.67321516,13 L7.67321516,13 Z M15.6062152,7.4665 L14.2727152,3.4665 C14.2062152,3.2 13.9392152,3 13.6727152,3 L3.00621516,3 C2.73971516,3 2.47271516,3.2 2.40621516,3.4665 L1.07271516,7.4665 C0.939215159,7.6665 1.00621516,7.8665 1.13921516,8.0665 C1.27221516,8.2665 1.47271516,8.333 1.67271516,8.333 L15.0062152,8.333 C15.2062152,8.333 15.4062152,8.1995 15.5397152,8.0665 C15.6732152,7.8665 15.7397152,7.6665 15.6062152,7.4665 Z M9.00621516,4.333 L10.4727152,4.333 L10.9392152,6.9995 L9.00571516,6.9995 L9.00571516,4.333 L9.00621516,4.333 Z M7.67321516,7 L5.80671516,7 L6.27321516,4.3335 L7.67321516,4.3335 L7.67321516,7 Z M3.47321516,4.333 L4.87321516,4.333 L4.40671516,6.9995 L2.60671516,6.9995 L3.47321516,4.333 Z M12.2062152,7 L11.7397152,4.3335 L13.1397152,4.3335 L14.0062152,7 L12.2062152,7 L12.2062152,7 Z M3.67321516,1 L13.0067152,1 L13.0067152,2.3335 L3.67321516,2.3335 L3.67321516,1 Z" id="形状" fill="#3399FF"></path>
                </g>
            </g>
        </g>
    </g>
</svg>