<?xml version="1.0" encoding="UTF-8"?>
<svg width="14px" height="14px" viewBox="0 0 14 14" version="1.1" xmlns="http://www.w3.org/2000/svg" xmlns:xlink="http://www.w3.org/1999/xlink">
    <!-- Generator: Sketch 57 (83077) - https://sketch.com -->
    <title>bank-fill</title>
    <desc>Created with Sketch.</desc>
    <g id="11.22" stroke="none" stroke-width="1" fill="none" fill-rule="evenodd">
        <g id="地区切换" transform="translate(-745.000000, -93.000000)" fill-rule="nonzero">
            <g id="编组-8" transform="translate(712.000000, 57.000000)">
                <g id="bank-fill" transform="translate(32.000000, 35.000000)">
                    <rect id="矩形" fill="#000000" opacity="0" x="0" y="0" width="16" height="16"></rect>
                    <path d="M13.96875,7.21875 C14.4515625,7.21875 14.653125,6.5984375 14.2609375,6.3125 L8.29375,1.971875 C8.11887322,1.8437502 7.88112678,1.8437502 7.70625,1.971875 L1.7390625,6.3125 C1.346875,6.596875 1.5484375,7.21875 2.0328125,7.21875 L3,7.21875 L3,13.0625 L1.875,13.0625 C1.80625,13.0625 1.75,13.11875 1.75,13.1875 L1.75,14 C1.75,14.06875 1.80625,14.125 1.875,14.125 L14.125,14.125 C14.19375,14.125 14.25,14.06875 14.25,14 L14.25,13.1875 C14.25,13.11875 14.19375,13.0625 14.125,13.0625 L13,13.0625 L13,7.21875 L13.96875,7.21875 Z M5.953125,13.0625 L4.125,13.0625 L4.125,7.21875 L5.953125,7.21875 L5.953125,13.0625 Z M8.90625,13.0625 L7.078125,13.0625 L7.078125,7.21875 L8.90625,7.21875 L8.90625,13.0625 Z M11.875,13.0625 L10.03125,13.0625 L10.03125,7.21875 L11.875,7.21875 L11.875,13.0625 Z" id="形状" fill="#3399FF"></path>
                </g>
            </g>
        </g>
    </g>
</svg>