<?xml version="1.0" encoding="UTF-8"?>
<svg width="16px" height="16px" viewBox="0 0 16 16" version="1.1" xmlns="http://www.w3.org/2000/svg" xmlns:xlink="http://www.w3.org/1999/xlink">
    <!-- Generator: Sketch 57 (83077) - https://sketch.com -->
    <title>control</title>
    <desc>Created with Sketch.</desc>
    <g id="11.22" stroke="none" stroke-width="1" fill="none" fill-rule="evenodd">
        <g id="市场结构评估—看板" transform="translate(-832.000000, -110.000000)" fill-rule="nonzero">
            <g id="编组-19" transform="translate(24.000000, 108.000000)">
                <g id="编组-16" transform="translate(808.000000, 0.000000)">
                    <g id="control" transform="translate(0.000000, 2.000000)">
                        <rect id="矩形" fill="#000000" opacity="0" x="0" y="0" width="16" height="16"></rect>
                        <path d="M13.75,1.75 L2.25,1.75 C1.9734375,1.75 1.75,1.9734375 1.75,2.25 L1.75,13.75 C1.75,14.0265625 1.9734375,14.25 2.25,14.25 L13.75,14.25 C14.0265625,14.25 14.25,14.0265625 14.25,13.75 L14.25,2.25 C14.25,1.9734375 14.0265625,1.75 13.75,1.75 Z M13.125,13.125 L2.875,13.125 L2.875,2.875 L13.125,2.875 L13.125,13.125 Z M5.3125,10.671875 L5.3125,11.875 C5.3125,11.94375 5.36875,12 5.4375,12 L6.1875,12 C6.25625,12 6.3125,11.94375 6.3125,11.875 L6.3125,10.671875 C6.1546875,10.7234375 5.9875,10.75 5.8125,10.75 C5.6375,10.75 5.4703125,10.721875 5.3125,10.671875 Z M6.3125,7.578125 L6.3125,4.125 C6.3125,4.05625 6.25625,4 6.1875,4 L5.4375,4 C5.36875,4 5.3125,4.05625 5.3125,4.125 L5.3125,7.578125 C5.4703125,7.5265625 5.6375,7.5 5.8125,7.5 C5.9875,7.5 6.1546875,7.528125 6.3125,7.578125 Z M5.3125,10.671875 C5.4703125,10.7234375 5.6375,10.75 5.8125,10.75 C5.9875,10.75 6.1546875,10.721875 6.3125,10.671875 C6.965625,10.4609375 7.4375,9.8484375 7.4375,9.125 C7.4375,8.4015625 6.965625,7.7890625 6.3125,7.578125 C6.1546875,7.5265625 5.9875,7.5 5.8125,7.5 C5.6375,7.5 5.4703125,7.528125 5.3125,7.578125 C4.659375,7.7890625 4.1875,8.4015625 4.1875,9.125 C4.1875,9.8484375 4.659375,10.4609375 5.3125,10.671875 Z M5.3140625,8.8640625 C5.31875,8.8546875 5.325,8.8453125 5.3296875,8.8359375 L5.3296875,8.834375 L5.3484375,8.80625 C5.35,8.803125 5.3515625,8.8015625 5.353125,8.7984375 C5.3578125,8.790625 5.3640625,8.784375 5.36875,8.7765625 C5.3703125,8.775 5.371875,8.771875 5.3734375,8.7703125 C5.38125,8.7609375 5.3875,8.753125 5.3953125,8.7453125 L5.4,8.740625 L5.41875,8.721875 L5.425,8.715625 C5.4328125,8.7078125 5.440625,8.7015625 5.45,8.69375 C5.459375,8.6859375 5.4671875,8.6796875 5.4765625,8.6734375 C5.4796875,8.671875 5.48125,8.6703125 5.484375,8.66875 C5.4921875,8.6640625 5.4984375,8.6578125 5.50625,8.653125 C5.5078125,8.6515625 5.5109375,8.65 5.5125,8.6484375 C5.521875,8.6421875 5.53125,8.6375 5.5421875,8.63125 C5.54375,8.6296875 5.546875,8.6296875 5.5484375,8.628125 C5.55625,8.6234375 5.5640625,8.6203125 5.5734375,8.615625 L5.5828125,8.6109375 C5.59375,8.60625 5.603125,8.6015625 5.6140625,8.5984375 C5.625,8.59375 5.6359375,8.590625 5.646875,8.5875 C5.65,8.5859375 5.653125,8.5859375 5.65625,8.584375 C5.665625,8.58125 5.6734375,8.5796875 5.6828125,8.578125 C5.6859375,8.578125 5.6875,8.5765625 5.690625,8.5765625 C5.7015625,8.5734375 5.7140625,8.571875 5.725,8.5703125 C5.728125,8.5703125 5.7296875,8.5703125 5.7328125,8.56875 C5.7421875,8.5671875 5.7515625,8.5671875 5.7609375,8.565625 L5.7703125,8.565625 C5.7828125,8.565625 5.79375,8.5640625 5.80625,8.5640625 C5.81875,8.5640625 5.8296875,8.5640625 5.8421875,8.565625 L5.8515625,8.565625 C5.8609375,8.565625 5.8703125,8.5671875 5.8796875,8.56875 C5.8828125,8.56875 5.884375,8.56875 5.8875,8.5703125 C5.8984375,8.571875 5.9109375,8.5734375 5.921875,8.5765625 C5.925,8.5765625 5.9265625,8.578125 5.9296875,8.578125 C5.9390625,8.5796875 5.9484375,8.5828125 5.95625,8.584375 C5.959375,8.5859375 5.9625,8.5859375 5.965625,8.5875 C5.9765625,8.590625 5.9875,8.59375 5.9984375,8.5984375 C6.009375,8.6015625 6.01875,8.60625 6.0296875,8.6109375 L6.0390625,8.615625 C6.046875,8.61875 6.05625,8.6234375 6.0640625,8.628125 C6.065625,8.6296875 6.06875,8.6296875 6.0703125,8.63125 C6.0796875,8.6359375 6.090625,8.6421875 6.1,8.6484375 C6.1015625,8.65 6.1046875,8.6515625 6.10625,8.653125 C6.1140625,8.6578125 6.121875,8.6625 6.128125,8.66875 C6.13125,8.6703125 6.1328125,8.671875 6.1359375,8.6734375 C6.1453125,8.6796875 6.1546875,8.6875 6.1625,8.69375 C6.1703125,8.7 6.1796875,8.7078125 6.1875,8.715625 L6.19375,8.721875 L6.2125,8.740625 L6.2171875,8.7453125 C6.225,8.753125 6.2328125,8.7625 6.2390625,8.7703125 C6.240625,8.771875 6.2421875,8.775 6.24375,8.7765625 C6.25,8.7828125 6.2546875,8.790625 6.259375,8.7984375 C6.2609375,8.8015625 6.2625,8.803125 6.2640625,8.80625 L6.2828125,8.834375 C6.2828125,8.834375 6.2828125,8.8359375 6.284375,8.8359375 C6.290625,8.8453125 6.2953125,8.8546875 6.3,8.8640625 C6.340625,8.9421875 6.3640625,9.03125 6.3640625,9.125 C6.3640625,9.21875 6.340625,9.3078125 6.3,9.3859375 C6.2953125,9.3953125 6.2890625,9.4046875 6.284375,9.4140625 C6.284375,9.4140625 6.284375,9.415625 6.2828125,9.415625 L6.2640625,9.44375 C6.2625,9.446875 6.2609375,9.4484375 6.259375,9.4515625 C6.2546875,9.459375 6.2484375,9.465625 6.24375,9.4734375 C6.2421875,9.475 6.240625,9.478125 6.2390625,9.4796875 C6.23125,9.4890625 6.225,9.496875 6.2171875,9.5046875 L6.2125,9.509375 L6.19375,9.528125 L6.1875,9.534375 C6.1796875,9.5421875 6.171875,9.5484375 6.1625,9.55625 C6.153125,9.5640625 6.1453125,9.5703125 6.1359375,9.5765625 C6.1328125,9.578125 6.13125,9.5796875 6.128125,9.58125 C6.1203125,9.5859375 6.1140625,9.5921875 6.10625,9.596875 C6.1046875,9.5984375 6.1015625,9.6 6.1,9.6015625 C6.090625,9.6078125 6.08125,9.6125 6.0703125,9.61875 C6.06875,9.6203125 6.065625,9.6203125 6.0640625,9.621875 C6.05625,9.6265625 6.0484375,9.6296875 6.0390625,9.634375 L6.0296875,9.6390625 C6.01875,9.64375 6.009375,9.6484375 5.9984375,9.6515625 C5.9875,9.65625 5.9765625,9.659375 5.965625,9.6625 C5.9625,9.6640625 5.959375,9.6640625 5.95625,9.665625 C5.946875,9.66875 5.9390625,9.6703125 5.9296875,9.671875 C5.9265625,9.671875 5.925,9.6734375 5.921875,9.6734375 C5.9109375,9.6765625 5.8984375,9.678125 5.8875,9.6796875 C5.884375,9.6796875 5.8828125,9.6796875 5.8796875,9.68125 C5.8703125,9.6828125 5.8609375,9.6828125 5.8515625,9.684375 L5.8421875,9.684375 C5.8296875,9.684375 5.81875,9.6859375 5.80625,9.6859375 C5.79375,9.6859375 5.7828125,9.6859375 5.7703125,9.684375 L5.7609375,9.684375 C5.7515625,9.684375 5.7421875,9.6828125 5.7328125,9.68125 C5.7296875,9.68125 5.728125,9.68125 5.725,9.6796875 C5.7140625,9.678125 5.7015625,9.6765625 5.690625,9.6734375 C5.6875,9.6734375 5.6859375,9.671875 5.6828125,9.671875 C5.6734375,9.6703125 5.6640625,9.6671875 5.65625,9.665625 C5.653125,9.6640625 5.65,9.6640625 5.646875,9.6625 C5.6359375,9.659375 5.625,9.65625 5.6140625,9.6515625 C5.603125,9.6484375 5.59375,9.64375 5.5828125,9.6390625 L5.5734375,9.634375 C5.565625,9.63125 5.55625,9.6265625 5.5484375,9.621875 C5.546875,9.6203125 5.54375,9.6203125 5.5421875,9.61875 C5.5328125,9.6140625 5.521875,9.6078125 5.5125,9.6015625 C5.5109375,9.6 5.5078125,9.5984375 5.50625,9.596875 C5.4984375,9.5921875 5.490625,9.5875 5.484375,9.58125 C5.48125,9.5796875 5.4796875,9.578125 5.4765625,9.5765625 C5.4671875,9.5703125 5.4578125,9.5625 5.45,9.55625 C5.4421875,9.55 5.4328125,9.5421875 5.425,9.534375 L5.41875,9.528125 L5.4,9.509375 L5.3953125,9.5046875 C5.3875,9.496875 5.3796875,9.4875 5.3734375,9.4796875 C5.371875,9.478125 5.3703125,9.475 5.36875,9.4734375 C5.3625,9.4671875 5.3578125,9.459375 5.353125,9.4515625 C5.3515625,9.4484375 5.35,9.446875 5.3484375,9.44375 L5.3296875,9.415625 L5.3296875,9.4140625 C5.3234375,9.4046875 5.31875,9.3953125 5.3140625,9.3859375 C5.2734375,9.3078125 5.25,9.21875 5.25,9.125 C5.25,9.03125 5.2734375,8.9421875 5.3140625,8.8640625 Z M9.6875,8.421875 L9.6875,11.875 C9.6875,11.94375 9.74375,12 9.8125,12 L10.5625,12 C10.63125,12 10.6875,11.94375 10.6875,11.875 L10.6875,8.421875 C10.5296875,8.4734375 10.3625,8.5 10.1875,8.5 C10.0125,8.5 9.8453125,8.471875 9.6875,8.421875 Z M10.6875,5.328125 L10.6875,4.125 C10.6875,4.05625 10.63125,4 10.5625,4 L9.8125,4 C9.74375,4 9.6875,4.05625 9.6875,4.125 L9.6875,5.328125 C9.8453125,5.2765625 10.0125,5.25 10.1875,5.25 C10.3625,5.25 10.5296875,5.278125 10.6875,5.328125 Z M9.6875,8.421875 C9.8453125,8.4734375 10.0125,8.5 10.1875,8.5 C10.3625,8.5 10.5296875,8.471875 10.6875,8.421875 C11.340625,8.2109375 11.8125,7.5984375 11.8125,6.875 C11.8125,6.1515625 11.340625,5.5390625 10.6875,5.328125 C10.5296875,5.2765625 10.3625,5.25 10.1875,5.25 C10.0125,5.25 9.8453125,5.278125 9.6875,5.328125 C9.034375,5.5390625 8.5625,6.1515625 8.5625,6.875 C8.5625,7.5984375 9.034375,8.2109375 9.6875,8.421875 Z M9.6890625,6.6140625 C9.69375,6.6046875 9.7,6.5953125 9.7046875,6.5859375 L9.7046875,6.584375 L9.7234375,6.55625 C9.725,6.553125 9.7265625,6.5515625 9.728125,6.5484375 C9.7328125,6.540625 9.7390625,6.534375 9.74375,6.5265625 C9.7453125,6.525 9.746875,6.521875 9.7484375,6.5203125 C9.75625,6.5109375 9.7625,6.503125 9.7703125,6.4953125 L9.775,6.490625 L9.79375,6.471875 L9.8,6.465625 C9.8078125,6.4578125 9.815625,6.4515625 9.825,6.44375 C9.834375,6.4359375 9.8421875,6.4296875 9.8515625,6.4234375 C9.8546875,6.421875 9.85625,6.4203125 9.859375,6.41875 C9.8671875,6.4140625 9.8734375,6.4078125 9.88125,6.403125 C9.8828125,6.4015625 9.8859375,6.4 9.8875,6.3984375 C9.896875,6.3921875 9.90625,6.3875 9.9171875,6.38125 C9.91875,6.3796875 9.921875,6.3796875 9.9234375,6.378125 C9.93125,6.3734375 9.9390625,6.3703125 9.9484375,6.365625 L9.9578125,6.3609375 C9.96875,6.35625 9.978125,6.3515625 9.9890625,6.3484375 C10,6.34375 10.0109375,6.340625 10.021875,6.3375 C10.025,6.3359375 10.028125,6.3359375 10.03125,6.334375 C10.040625,6.33125 10.0484375,6.3296875 10.0578125,6.328125 C10.0609375,6.328125 10.0625,6.3265625 10.065625,6.3265625 C10.0765625,6.3234375 10.0890625,6.321875 10.1,6.3203125 C10.103125,6.3203125 10.1046875,6.3203125 10.1078125,6.31875 C10.1171875,6.3171875 10.1265625,6.3171875 10.1359375,6.315625 L10.1453125,6.315625 C10.1578125,6.315625 10.16875,6.3140625 10.18125,6.3140625 C10.19375,6.3140625 10.2046875,6.3140625 10.2171875,6.315625 L10.2265625,6.315625 C10.2359375,6.315625 10.2453125,6.3171875 10.2546875,6.31875 C10.2578125,6.31875 10.259375,6.31875 10.2625,6.3203125 C10.2734375,6.321875 10.2859375,6.3234375 10.296875,6.3265625 C10.3,6.3265625 10.3015625,6.328125 10.3046875,6.328125 C10.3140625,6.3296875 10.3234375,6.3328125 10.33125,6.334375 C10.334375,6.3359375 10.3375,6.3359375 10.340625,6.3375 C10.3515625,6.340625 10.3625,6.34375 10.3734375,6.3484375 C10.384375,6.3515625 10.39375,6.35625 10.4046875,6.3609375 L10.4140625,6.365625 C10.421875,6.36875 10.43125,6.3734375 10.4390625,6.378125 C10.440625,6.3796875 10.44375,6.3796875 10.4453125,6.38125 C10.4546875,6.3859375 10.465625,6.3921875 10.475,6.3984375 C10.4765625,6.4 10.4796875,6.4015625 10.48125,6.403125 C10.4890625,6.4078125 10.496875,6.4125 10.503125,6.41875 C10.50625,6.4203125 10.5078125,6.421875 10.5109375,6.4234375 C10.5203125,6.4296875 10.5296875,6.4375 10.5375,6.44375 C10.5453125,6.45 10.5546875,6.4578125 10.5625,6.465625 L10.56875,6.471875 L10.5875,6.490625 L10.5921875,6.4953125 C10.6,6.503125 10.6078125,6.5125 10.6140625,6.5203125 C10.615625,6.521875 10.6171875,6.525 10.61875,6.5265625 C10.625,6.5328125 10.6296875,6.540625 10.634375,6.5484375 C10.6359375,6.5515625 10.6375,6.553125 10.6390625,6.55625 L10.6578125,6.584375 L10.6578125,6.5859375 C10.6640625,6.5953125 10.66875,6.6046875 10.6734375,6.6140625 C10.7140625,6.6921875 10.7375,6.78125 10.7375,6.875 C10.7375,6.96875 10.7140625,7.0578125 10.6734375,7.1359375 C10.66875,7.1453125 10.6625,7.1546875 10.6578125,7.1640625 L10.6578125,7.165625 L10.6390625,7.19375 C10.6375,7.196875 10.6359375,7.1984375 10.634375,7.2015625 C10.6296875,7.209375 10.6234375,7.215625 10.61875,7.2234375 C10.6171875,7.225 10.615625,7.228125 10.6140625,7.2296875 C10.60625,7.2390625 10.6,7.246875 10.5921875,7.2546875 L10.5875,7.259375 L10.56875,7.278125 L10.5625,7.284375 C10.5546875,7.2921875 10.546875,7.2984375 10.5375,7.30625 C10.528125,7.3140625 10.5203125,7.3203125 10.5109375,7.3265625 C10.5078125,7.328125 10.50625,7.3296875 10.503125,7.33125 C10.4953125,7.3359375 10.4890625,7.3421875 10.48125,7.346875 C10.4796875,7.3484375 10.4765625,7.35 10.475,7.3515625 C10.465625,7.3578125 10.45625,7.3625 10.4453125,7.36875 C10.44375,7.3703125 10.440625,7.3703125 10.4390625,7.371875 C10.43125,7.3765625 10.4234375,7.3796875 10.4140625,7.384375 L10.4046875,7.3890625 C10.39375,7.39375 10.384375,7.3984375 10.3734375,7.4015625 C10.3625,7.40625 10.3515625,7.409375 10.340625,7.4125 C10.3375,7.4140625 10.334375,7.4140625 10.33125,7.415625 C10.321875,7.41875 10.3140625,7.4203125 10.3046875,7.421875 C10.3015625,7.421875 10.3,7.4234375 10.296875,7.4234375 C10.2859375,7.4265625 10.2734375,7.428125 10.2625,7.4296875 C10.259375,7.4296875 10.2578125,7.4296875 10.2546875,7.43125 C10.2453125,7.4328125 10.2359375,7.4328125 10.2265625,7.434375 L10.2171875,7.434375 C10.2046875,7.434375 10.19375,7.4359375 10.18125,7.4359375 C10.16875,7.4359375 10.1578125,7.4359375 10.1453125,7.434375 L10.1359375,7.434375 C10.1265625,7.434375 10.1171875,7.4328125 10.1078125,7.43125 C10.1046875,7.43125 10.103125,7.43125 10.1,7.4296875 C10.0890625,7.428125 10.0765625,7.4265625 10.065625,7.4234375 C10.0625,7.4234375 10.0609375,7.421875 10.0578125,7.421875 C10.0484375,7.4203125 10.0390625,7.4171875 10.03125,7.415625 C10.028125,7.4140625 10.025,7.4140625 10.021875,7.4125 C10.0109375,7.409375 10,7.40625 9.9890625,7.4015625 C9.978125,7.3984375 9.96875,7.39375 9.9578125,7.3890625 L9.9484375,7.384375 C9.940625,7.38125 9.93125,7.3765625 9.9234375,7.371875 C9.921875,7.3703125 9.91875,7.3703125 9.9171875,7.36875 C9.9078125,7.3640625 9.896875,7.3578125 9.8875,7.3515625 C9.8859375,7.35 9.8828125,7.3484375 9.88125,7.346875 C9.8734375,7.3421875 9.865625,7.3375 9.859375,7.33125 C9.85625,7.3296875 9.8546875,7.328125 9.8515625,7.3265625 C9.8421875,7.3203125 9.8328125,7.3125 9.825,7.30625 C9.8171875,7.3 9.8078125,7.2921875 9.8,7.284375 L9.79375,7.278125 L9.775,7.259375 L9.7703125,7.2546875 C9.7625,7.246875 9.7546875,7.2375 9.7484375,7.2296875 C9.746875,7.228125 9.7453125,7.225 9.74375,7.2234375 C9.7375,7.2171875 9.7328125,7.209375 9.728125,7.2015625 C9.7265625,7.1984375 9.725,7.196875 9.7234375,7.19375 L9.7046875,7.165625 L9.7046875,7.1640625 C9.6984375,7.1546875 9.69375,7.1453125 9.6890625,7.1359375 C9.6484375,7.0578125 9.625,6.96875 9.625,6.875 C9.625,6.78125 9.6484375,6.6921875 9.6890625,6.6140625 Z" id="形状" fill="#3FF3D3"></path>
                    </g>
                </g>
            </g>
        </g>
    </g>
</svg>